<?xml version="1.0" encoding="utf-8" standalone="no"?>
<!DOCTYPE svg PUBLIC "-//W3C//DTD SVG 1.1//EN"
  "http://www.w3.org/Graphics/SVG/1.1/DTD/svg11.dtd">
<!-- Created with matplotlib (https://matplotlib.org/) -->
<svg height="399.950625pt" version="1.1" viewBox="0 0 539.009375 399.950625" width="539.009375pt" xmlns="http://www.w3.org/2000/svg" xmlns:xlink="http://www.w3.org/1999/xlink">
 <metadata>
  <rdf:RDF xmlns:cc="http://creativecommons.org/ns#" xmlns:dc="http://purl.org/dc/elements/1.1/" xmlns:rdf="http://www.w3.org/1999/02/22-rdf-syntax-ns#">
   <cc:Work>
    <dc:type rdf:resource="http://purl.org/dc/dcmitype/StillImage"/>
    <dc:date>2022-04-26T09:34:56.421934</dc:date>
    <dc:format>image/svg+xml</dc:format>
    <dc:creator>
     <cc:Agent>
      <dc:title>Matplotlib v3.3.4, https://matplotlib.org/</dc:title>
     </cc:Agent>
    </dc:creator>
   </cc:Work>
  </rdf:RDF>
 </metadata>
 <defs>
  <style type="text/css">*{stroke-linecap:butt;stroke-linejoin:round;}</style>
 </defs>
 <g id="figure_1">
  <g id="patch_1">
   <path d="M 0 399.950625 
L 539.009375 399.950625 
L 539.009375 0 
L 0 0 
z
" style="fill:none;"/>
  </g>
  <g id="axes_1">
   <g id="patch_2">
    <path d="M 85.409375 333.36 
L 531.809375 333.36 
L 531.809375 7.2 
L 85.409375 7.2 
z
" style="fill:#ffffff;"/>
   </g>
   <g id="patch_3">
    <path clip-path="url(#p7d212542d8)" d="M 105.700284 333.36 
L 146.282102 333.36 
L 146.282102 22.731429 
L 105.700284 22.731429 
z
" style="fill:#1f77b4;"/>
   </g>
   <g id="patch_4">
    <path clip-path="url(#p7d212542d8)" d="M 146.282102 333.36 
L 186.86392 333.36 
L 186.86392 331.488744 
L 146.282102 331.488744 
z
" style="fill:#1f77b4;"/>
   </g>
   <g id="patch_5">
    <path clip-path="url(#p7d212542d8)" d="M 186.86392 333.36 
L 227.445739 333.36 
L 227.445739 333.36 
L 186.86392 333.36 
z
" style="fill:#1f77b4;"/>
   </g>
   <g id="patch_6">
    <path clip-path="url(#p7d212542d8)" d="M 227.445739 333.36 
L 268.027557 333.36 
L 268.027557 332.424372 
L 227.445739 332.424372 
z
" style="fill:#1f77b4;"/>
   </g>
   <g id="patch_7">
    <path clip-path="url(#p7d212542d8)" d="M 268.027557 333.36 
L 308.609375 333.36 
L 308.609375 332.892186 
L 268.027557 332.892186 
z
" style="fill:#1f77b4;"/>
   </g>
   <g id="patch_8">
    <path clip-path="url(#p7d212542d8)" d="M 308.609375 333.36 
L 349.191193 333.36 
L 349.191193 332.424372 
L 308.609375 332.424372 
z
" style="fill:#1f77b4;"/>
   </g>
   <g id="patch_9">
    <path clip-path="url(#p7d212542d8)" d="M 349.191193 333.36 
L 389.773011 333.36 
L 389.773011 332.424372 
L 349.191193 332.424372 
z
" style="fill:#1f77b4;"/>
   </g>
   <g id="patch_10">
    <path clip-path="url(#p7d212542d8)" d="M 389.773011 333.36 
L 430.35483 333.36 
L 430.35483 333.36 
L 389.773011 333.36 
z
" style="fill:#1f77b4;"/>
   </g>
   <g id="patch_11">
    <path clip-path="url(#p7d212542d8)" d="M 430.35483 333.36 
L 470.936648 333.36 
L 470.936648 333.36 
L 430.35483 333.36 
z
" style="fill:#1f77b4;"/>
   </g>
   <g id="patch_12">
    <path clip-path="url(#p7d212542d8)" d="M 470.936648 333.36 
L 511.518466 333.36 
L 511.518466 332.424372 
L 470.936648 332.424372 
z
" style="fill:#1f77b4;"/>
   </g>
   <g id="matplotlib.axis_1">
    <g id="xtick_1">
     <g id="line2d_1">
      <defs>
       <path d="M 0 0 
L 0 3.5 
" id="medc0ddc8b5" style="stroke:#000000;stroke-width:0.8;"/>
      </defs>
      <g>
       <use style="stroke:#000000;stroke-width:0.8;" x="105.652925" xlink:href="#medc0ddc8b5" y="333.36"/>
      </g>
     </g>
     <g id="text_1">
      <!-- 0 -->
      <g transform="translate(99.290425 355.556875)scale(0.2 -0.2)">
       <defs>
        <path d="M 31.78125 66.40625 
Q 24.171875 66.40625 20.328125 58.90625 
Q 16.5 51.421875 16.5 36.375 
Q 16.5 21.390625 20.328125 13.890625 
Q 24.171875 6.390625 31.78125 6.390625 
Q 39.453125 6.390625 43.28125 13.890625 
Q 47.125 21.390625 47.125 36.375 
Q 47.125 51.421875 43.28125 58.90625 
Q 39.453125 66.40625 31.78125 66.40625 
z
M 31.78125 74.21875 
Q 44.046875 74.21875 50.515625 64.515625 
Q 56.984375 54.828125 56.984375 36.375 
Q 56.984375 17.96875 50.515625 8.265625 
Q 44.046875 -1.421875 31.78125 -1.421875 
Q 19.53125 -1.421875 13.0625 8.265625 
Q 6.59375 17.96875 6.59375 36.375 
Q 6.59375 54.828125 13.0625 64.515625 
Q 19.53125 74.21875 31.78125 74.21875 
z
" id="DejaVuSans-48"/>
       </defs>
       <use xlink:href="#DejaVuSans-48"/>
      </g>
     </g>
    </g>
    <g id="xtick_2">
     <g id="line2d_2">
      <g>
       <use style="stroke:#000000;stroke-width:0.8;" x="229.466406" xlink:href="#medc0ddc8b5" y="333.36"/>
      </g>
     </g>
     <g id="text_2">
      <!-- 2000 -->
      <g transform="translate(204.016406 355.556875)scale(0.2 -0.2)">
       <defs>
        <path d="M 19.1875 8.296875 
L 53.609375 8.296875 
L 53.609375 0 
L 7.328125 0 
L 7.328125 8.296875 
Q 12.9375 14.109375 22.625 23.890625 
Q 32.328125 33.6875 34.8125 36.53125 
Q 39.546875 41.84375 41.421875 45.53125 
Q 43.3125 49.21875 43.3125 52.78125 
Q 43.3125 58.59375 39.234375 62.25 
Q 35.15625 65.921875 28.609375 65.921875 
Q 23.96875 65.921875 18.8125 64.3125 
Q 13.671875 62.703125 7.8125 59.421875 
L 7.8125 69.390625 
Q 13.765625 71.78125 18.9375 73 
Q 24.125 74.21875 28.421875 74.21875 
Q 39.75 74.21875 46.484375 68.546875 
Q 53.21875 62.890625 53.21875 53.421875 
Q 53.21875 48.921875 51.53125 44.890625 
Q 49.859375 40.875 45.40625 35.40625 
Q 44.1875 33.984375 37.640625 27.21875 
Q 31.109375 20.453125 19.1875 8.296875 
z
" id="DejaVuSans-50"/>
       </defs>
       <use xlink:href="#DejaVuSans-50"/>
       <use x="63.623047" xlink:href="#DejaVuSans-48"/>
       <use x="127.246094" xlink:href="#DejaVuSans-48"/>
       <use x="190.869141" xlink:href="#DejaVuSans-48"/>
      </g>
     </g>
    </g>
    <g id="xtick_3">
     <g id="line2d_3">
      <g>
       <use style="stroke:#000000;stroke-width:0.8;" x="353.279886" xlink:href="#medc0ddc8b5" y="333.36"/>
      </g>
     </g>
     <g id="text_3">
      <!-- 4000 -->
      <g transform="translate(327.829886 355.556875)scale(0.2 -0.2)">
       <defs>
        <path d="M 37.796875 64.3125 
L 12.890625 25.390625 
L 37.796875 25.390625 
z
M 35.203125 72.90625 
L 47.609375 72.90625 
L 47.609375 25.390625 
L 58.015625 25.390625 
L 58.015625 17.1875 
L 47.609375 17.1875 
L 47.609375 0 
L 37.796875 0 
L 37.796875 17.1875 
L 4.890625 17.1875 
L 4.890625 26.703125 
z
" id="DejaVuSans-52"/>
       </defs>
       <use xlink:href="#DejaVuSans-52"/>
       <use x="63.623047" xlink:href="#DejaVuSans-48"/>
       <use x="127.246094" xlink:href="#DejaVuSans-48"/>
       <use x="190.869141" xlink:href="#DejaVuSans-48"/>
      </g>
     </g>
    </g>
    <g id="xtick_4">
     <g id="line2d_4">
      <g>
       <use style="stroke:#000000;stroke-width:0.8;" x="477.093366" xlink:href="#medc0ddc8b5" y="333.36"/>
      </g>
     </g>
     <g id="text_4">
      <!-- 6000 -->
      <g transform="translate(451.643366 355.556875)scale(0.2 -0.2)">
       <defs>
        <path d="M 33.015625 40.375 
Q 26.375 40.375 22.484375 35.828125 
Q 18.609375 31.296875 18.609375 23.390625 
Q 18.609375 15.53125 22.484375 10.953125 
Q 26.375 6.390625 33.015625 6.390625 
Q 39.65625 6.390625 43.53125 10.953125 
Q 47.40625 15.53125 47.40625 23.390625 
Q 47.40625 31.296875 43.53125 35.828125 
Q 39.65625 40.375 33.015625 40.375 
z
M 52.59375 71.296875 
L 52.59375 62.3125 
Q 48.875 64.0625 45.09375 64.984375 
Q 41.3125 65.921875 37.59375 65.921875 
Q 27.828125 65.921875 22.671875 59.328125 
Q 17.53125 52.734375 16.796875 39.40625 
Q 19.671875 43.65625 24.015625 45.921875 
Q 28.375 48.1875 33.59375 48.1875 
Q 44.578125 48.1875 50.953125 41.515625 
Q 57.328125 34.859375 57.328125 23.390625 
Q 57.328125 12.15625 50.6875 5.359375 
Q 44.046875 -1.421875 33.015625 -1.421875 
Q 20.359375 -1.421875 13.671875 8.265625 
Q 6.984375 17.96875 6.984375 36.375 
Q 6.984375 53.65625 15.1875 63.9375 
Q 23.390625 74.21875 37.203125 74.21875 
Q 40.921875 74.21875 44.703125 73.484375 
Q 48.484375 72.75 52.59375 71.296875 
z
" id="DejaVuSans-54"/>
       </defs>
       <use xlink:href="#DejaVuSans-54"/>
       <use x="63.623047" xlink:href="#DejaVuSans-48"/>
       <use x="127.246094" xlink:href="#DejaVuSans-48"/>
       <use x="190.869141" xlink:href="#DejaVuSans-48"/>
      </g>
     </g>
    </g>
    <g id="text_5">
     <!-- PAF Event Duration (s) -->
     <g transform="translate(139.692969 386.511563)scale(0.3 -0.3)">
      <defs>
       <path d="M 19.671875 64.796875 
L 19.671875 37.40625 
L 32.078125 37.40625 
Q 38.96875 37.40625 42.71875 40.96875 
Q 46.484375 44.53125 46.484375 51.125 
Q 46.484375 57.671875 42.71875 61.234375 
Q 38.96875 64.796875 32.078125 64.796875 
z
M 9.8125 72.90625 
L 32.078125 72.90625 
Q 44.34375 72.90625 50.609375 67.359375 
Q 56.890625 61.8125 56.890625 51.125 
Q 56.890625 40.328125 50.609375 34.8125 
Q 44.34375 29.296875 32.078125 29.296875 
L 19.671875 29.296875 
L 19.671875 0 
L 9.8125 0 
z
" id="DejaVuSans-80"/>
       <path d="M 34.1875 63.1875 
L 20.796875 26.90625 
L 47.609375 26.90625 
z
M 28.609375 72.90625 
L 39.796875 72.90625 
L 67.578125 0 
L 57.328125 0 
L 50.6875 18.703125 
L 17.828125 18.703125 
L 11.1875 0 
L 0.78125 0 
z
" id="DejaVuSans-65"/>
       <path d="M 9.8125 72.90625 
L 51.703125 72.90625 
L 51.703125 64.59375 
L 19.671875 64.59375 
L 19.671875 43.109375 
L 48.578125 43.109375 
L 48.578125 34.8125 
L 19.671875 34.8125 
L 19.671875 0 
L 9.8125 0 
z
" id="DejaVuSans-70"/>
       <path id="DejaVuSans-32"/>
       <path d="M 9.8125 72.90625 
L 55.90625 72.90625 
L 55.90625 64.59375 
L 19.671875 64.59375 
L 19.671875 43.015625 
L 54.390625 43.015625 
L 54.390625 34.71875 
L 19.671875 34.71875 
L 19.671875 8.296875 
L 56.78125 8.296875 
L 56.78125 0 
L 9.8125 0 
z
" id="DejaVuSans-69"/>
       <path d="M 2.984375 54.6875 
L 12.5 54.6875 
L 29.59375 8.796875 
L 46.6875 54.6875 
L 56.203125 54.6875 
L 35.6875 0 
L 23.484375 0 
z
" id="DejaVuSans-118"/>
       <path d="M 56.203125 29.59375 
L 56.203125 25.203125 
L 14.890625 25.203125 
Q 15.484375 15.921875 20.484375 11.0625 
Q 25.484375 6.203125 34.421875 6.203125 
Q 39.59375 6.203125 44.453125 7.46875 
Q 49.3125 8.734375 54.109375 11.28125 
L 54.109375 2.78125 
Q 49.265625 0.734375 44.1875 -0.34375 
Q 39.109375 -1.421875 33.890625 -1.421875 
Q 20.796875 -1.421875 13.15625 6.1875 
Q 5.515625 13.8125 5.515625 26.8125 
Q 5.515625 40.234375 12.765625 48.109375 
Q 20.015625 56 32.328125 56 
Q 43.359375 56 49.78125 48.890625 
Q 56.203125 41.796875 56.203125 29.59375 
z
M 47.21875 32.234375 
Q 47.125 39.59375 43.09375 43.984375 
Q 39.0625 48.390625 32.421875 48.390625 
Q 24.90625 48.390625 20.390625 44.140625 
Q 15.875 39.890625 15.1875 32.171875 
z
" id="DejaVuSans-101"/>
       <path d="M 54.890625 33.015625 
L 54.890625 0 
L 45.90625 0 
L 45.90625 32.71875 
Q 45.90625 40.484375 42.875 44.328125 
Q 39.84375 48.1875 33.796875 48.1875 
Q 26.515625 48.1875 22.3125 43.546875 
Q 18.109375 38.921875 18.109375 30.90625 
L 18.109375 0 
L 9.078125 0 
L 9.078125 54.6875 
L 18.109375 54.6875 
L 18.109375 46.1875 
Q 21.34375 51.125 25.703125 53.5625 
Q 30.078125 56 35.796875 56 
Q 45.21875 56 50.046875 50.171875 
Q 54.890625 44.34375 54.890625 33.015625 
z
" id="DejaVuSans-110"/>
       <path d="M 18.3125 70.21875 
L 18.3125 54.6875 
L 36.8125 54.6875 
L 36.8125 47.703125 
L 18.3125 47.703125 
L 18.3125 18.015625 
Q 18.3125 11.328125 20.140625 9.421875 
Q 21.96875 7.515625 27.59375 7.515625 
L 36.8125 7.515625 
L 36.8125 0 
L 27.59375 0 
Q 17.1875 0 13.234375 3.875 
Q 9.28125 7.765625 9.28125 18.015625 
L 9.28125 47.703125 
L 2.6875 47.703125 
L 2.6875 54.6875 
L 9.28125 54.6875 
L 9.28125 70.21875 
z
" id="DejaVuSans-116"/>
       <path d="M 19.671875 64.796875 
L 19.671875 8.109375 
L 31.59375 8.109375 
Q 46.6875 8.109375 53.6875 14.9375 
Q 60.6875 21.78125 60.6875 36.53125 
Q 60.6875 51.171875 53.6875 57.984375 
Q 46.6875 64.796875 31.59375 64.796875 
z
M 9.8125 72.90625 
L 30.078125 72.90625 
Q 51.265625 72.90625 61.171875 64.09375 
Q 71.09375 55.28125 71.09375 36.53125 
Q 71.09375 17.671875 61.125 8.828125 
Q 51.171875 0 30.078125 0 
L 9.8125 0 
z
" id="DejaVuSans-68"/>
       <path d="M 8.5 21.578125 
L 8.5 54.6875 
L 17.484375 54.6875 
L 17.484375 21.921875 
Q 17.484375 14.15625 20.5 10.265625 
Q 23.53125 6.390625 29.59375 6.390625 
Q 36.859375 6.390625 41.078125 11.03125 
Q 45.3125 15.671875 45.3125 23.6875 
L 45.3125 54.6875 
L 54.296875 54.6875 
L 54.296875 0 
L 45.3125 0 
L 45.3125 8.40625 
Q 42.046875 3.421875 37.71875 1 
Q 33.40625 -1.421875 27.6875 -1.421875 
Q 18.265625 -1.421875 13.375 4.4375 
Q 8.5 10.296875 8.5 21.578125 
z
M 31.109375 56 
z
" id="DejaVuSans-117"/>
       <path d="M 41.109375 46.296875 
Q 39.59375 47.171875 37.8125 47.578125 
Q 36.03125 48 33.890625 48 
Q 26.265625 48 22.1875 43.046875 
Q 18.109375 38.09375 18.109375 28.8125 
L 18.109375 0 
L 9.078125 0 
L 9.078125 54.6875 
L 18.109375 54.6875 
L 18.109375 46.1875 
Q 20.953125 51.171875 25.484375 53.578125 
Q 30.03125 56 36.53125 56 
Q 37.453125 56 38.578125 55.875 
Q 39.703125 55.765625 41.0625 55.515625 
z
" id="DejaVuSans-114"/>
       <path d="M 34.28125 27.484375 
Q 23.390625 27.484375 19.1875 25 
Q 14.984375 22.515625 14.984375 16.5 
Q 14.984375 11.71875 18.140625 8.90625 
Q 21.296875 6.109375 26.703125 6.109375 
Q 34.1875 6.109375 38.703125 11.40625 
Q 43.21875 16.703125 43.21875 25.484375 
L 43.21875 27.484375 
z
M 52.203125 31.203125 
L 52.203125 0 
L 43.21875 0 
L 43.21875 8.296875 
Q 40.140625 3.328125 35.546875 0.953125 
Q 30.953125 -1.421875 24.3125 -1.421875 
Q 15.921875 -1.421875 10.953125 3.296875 
Q 6 8.015625 6 15.921875 
Q 6 25.140625 12.171875 29.828125 
Q 18.359375 34.515625 30.609375 34.515625 
L 43.21875 34.515625 
L 43.21875 35.40625 
Q 43.21875 41.609375 39.140625 45 
Q 35.0625 48.390625 27.6875 48.390625 
Q 23 48.390625 18.546875 47.265625 
Q 14.109375 46.140625 10.015625 43.890625 
L 10.015625 52.203125 
Q 14.9375 54.109375 19.578125 55.046875 
Q 24.21875 56 28.609375 56 
Q 40.484375 56 46.34375 49.84375 
Q 52.203125 43.703125 52.203125 31.203125 
z
" id="DejaVuSans-97"/>
       <path d="M 9.421875 54.6875 
L 18.40625 54.6875 
L 18.40625 0 
L 9.421875 0 
z
M 9.421875 75.984375 
L 18.40625 75.984375 
L 18.40625 64.59375 
L 9.421875 64.59375 
z
" id="DejaVuSans-105"/>
       <path d="M 30.609375 48.390625 
Q 23.390625 48.390625 19.1875 42.75 
Q 14.984375 37.109375 14.984375 27.296875 
Q 14.984375 17.484375 19.15625 11.84375 
Q 23.34375 6.203125 30.609375 6.203125 
Q 37.796875 6.203125 41.984375 11.859375 
Q 46.1875 17.53125 46.1875 27.296875 
Q 46.1875 37.015625 41.984375 42.703125 
Q 37.796875 48.390625 30.609375 48.390625 
z
M 30.609375 56 
Q 42.328125 56 49.015625 48.375 
Q 55.71875 40.765625 55.71875 27.296875 
Q 55.71875 13.875 49.015625 6.21875 
Q 42.328125 -1.421875 30.609375 -1.421875 
Q 18.84375 -1.421875 12.171875 6.21875 
Q 5.515625 13.875 5.515625 27.296875 
Q 5.515625 40.765625 12.171875 48.375 
Q 18.84375 56 30.609375 56 
z
" id="DejaVuSans-111"/>
       <path d="M 31 75.875 
Q 24.46875 64.65625 21.28125 53.65625 
Q 18.109375 42.671875 18.109375 31.390625 
Q 18.109375 20.125 21.3125 9.0625 
Q 24.515625 -2 31 -13.1875 
L 23.1875 -13.1875 
Q 15.875 -1.703125 12.234375 9.375 
Q 8.59375 20.453125 8.59375 31.390625 
Q 8.59375 42.28125 12.203125 53.3125 
Q 15.828125 64.359375 23.1875 75.875 
z
" id="DejaVuSans-40"/>
       <path d="M 44.28125 53.078125 
L 44.28125 44.578125 
Q 40.484375 46.53125 36.375 47.5 
Q 32.28125 48.484375 27.875 48.484375 
Q 21.1875 48.484375 17.84375 46.4375 
Q 14.5 44.390625 14.5 40.28125 
Q 14.5 37.15625 16.890625 35.375 
Q 19.28125 33.59375 26.515625 31.984375 
L 29.59375 31.296875 
Q 39.15625 29.25 43.1875 25.515625 
Q 47.21875 21.78125 47.21875 15.09375 
Q 47.21875 7.46875 41.1875 3.015625 
Q 35.15625 -1.421875 24.609375 -1.421875 
Q 20.21875 -1.421875 15.453125 -0.5625 
Q 10.6875 0.296875 5.421875 2 
L 5.421875 11.28125 
Q 10.40625 8.6875 15.234375 7.390625 
Q 20.0625 6.109375 24.8125 6.109375 
Q 31.15625 6.109375 34.5625 8.28125 
Q 37.984375 10.453125 37.984375 14.40625 
Q 37.984375 18.0625 35.515625 20.015625 
Q 33.0625 21.96875 24.703125 23.78125 
L 21.578125 24.515625 
Q 13.234375 26.265625 9.515625 29.90625 
Q 5.8125 33.546875 5.8125 39.890625 
Q 5.8125 47.609375 11.28125 51.796875 
Q 16.75 56 26.8125 56 
Q 31.78125 56 36.171875 55.265625 
Q 40.578125 54.546875 44.28125 53.078125 
z
" id="DejaVuSans-115"/>
       <path d="M 8.015625 75.875 
L 15.828125 75.875 
Q 23.140625 64.359375 26.78125 53.3125 
Q 30.421875 42.28125 30.421875 31.390625 
Q 30.421875 20.453125 26.78125 9.375 
Q 23.140625 -1.703125 15.828125 -13.1875 
L 8.015625 -13.1875 
Q 14.5 -2 17.703125 9.0625 
Q 20.90625 20.125 20.90625 31.390625 
Q 20.90625 42.671875 17.703125 53.65625 
Q 14.5 64.65625 8.015625 75.875 
z
" id="DejaVuSans-41"/>
      </defs>
      <use xlink:href="#DejaVuSans-80"/>
      <use x="53.927734" xlink:href="#DejaVuSans-65"/>
      <use x="122.335938" xlink:href="#DejaVuSans-70"/>
      <use x="179.855469" xlink:href="#DejaVuSans-32"/>
      <use x="211.642578" xlink:href="#DejaVuSans-69"/>
      <use x="274.826172" xlink:href="#DejaVuSans-118"/>
      <use x="334.005859" xlink:href="#DejaVuSans-101"/>
      <use x="395.529297" xlink:href="#DejaVuSans-110"/>
      <use x="458.908203" xlink:href="#DejaVuSans-116"/>
      <use x="498.117188" xlink:href="#DejaVuSans-32"/>
      <use x="529.904297" xlink:href="#DejaVuSans-68"/>
      <use x="606.90625" xlink:href="#DejaVuSans-117"/>
      <use x="670.285156" xlink:href="#DejaVuSans-114"/>
      <use x="711.398438" xlink:href="#DejaVuSans-97"/>
      <use x="772.677734" xlink:href="#DejaVuSans-116"/>
      <use x="811.886719" xlink:href="#DejaVuSans-105"/>
      <use x="839.669922" xlink:href="#DejaVuSans-111"/>
      <use x="900.851562" xlink:href="#DejaVuSans-110"/>
      <use x="964.230469" xlink:href="#DejaVuSans-32"/>
      <use x="996.017578" xlink:href="#DejaVuSans-40"/>
      <use x="1035.03125" xlink:href="#DejaVuSans-115"/>
      <use x="1087.130859" xlink:href="#DejaVuSans-41"/>
     </g>
    </g>
   </g>
   <g id="matplotlib.axis_2">
    <g id="ytick_1">
     <g id="line2d_5">
      <defs>
       <path d="M 0 0 
L -3.5 0 
" id="m30de99b9b9" style="stroke:#000000;stroke-width:0.8;"/>
      </defs>
      <g>
       <use style="stroke:#000000;stroke-width:0.8;" x="85.409375" xlink:href="#m30de99b9b9" y="333.36"/>
      </g>
     </g>
     <g id="text_6">
      <!-- 0 -->
      <g transform="translate(65.684375 340.958438)scale(0.2 -0.2)">
       <use xlink:href="#DejaVuSans-48"/>
      </g>
     </g>
    </g>
    <g id="ytick_2">
     <g id="line2d_6">
      <g>
       <use style="stroke:#000000;stroke-width:0.8;" x="85.409375" xlink:href="#m30de99b9b9" y="286.578589"/>
      </g>
     </g>
     <g id="text_7">
      <!-- 100 -->
      <g transform="translate(40.234375 294.177026)scale(0.2 -0.2)">
       <defs>
        <path d="M 12.40625 8.296875 
L 28.515625 8.296875 
L 28.515625 63.921875 
L 10.984375 60.40625 
L 10.984375 69.390625 
L 28.421875 72.90625 
L 38.28125 72.90625 
L 38.28125 8.296875 
L 54.390625 8.296875 
L 54.390625 0 
L 12.40625 0 
z
" id="DejaVuSans-49"/>
       </defs>
       <use xlink:href="#DejaVuSans-49"/>
       <use x="63.623047" xlink:href="#DejaVuSans-48"/>
       <use x="127.246094" xlink:href="#DejaVuSans-48"/>
      </g>
     </g>
    </g>
    <g id="ytick_3">
     <g id="line2d_7">
      <g>
       <use style="stroke:#000000;stroke-width:0.8;" x="85.409375" xlink:href="#m30de99b9b9" y="239.797177"/>
      </g>
     </g>
     <g id="text_8">
      <!-- 200 -->
      <g transform="translate(40.234375 247.395615)scale(0.2 -0.2)">
       <use xlink:href="#DejaVuSans-50"/>
       <use x="63.623047" xlink:href="#DejaVuSans-48"/>
       <use x="127.246094" xlink:href="#DejaVuSans-48"/>
      </g>
     </g>
    </g>
    <g id="ytick_4">
     <g id="line2d_8">
      <g>
       <use style="stroke:#000000;stroke-width:0.8;" x="85.409375" xlink:href="#m30de99b9b9" y="193.015766"/>
      </g>
     </g>
     <g id="text_9">
      <!-- 300 -->
      <g transform="translate(40.234375 200.614203)scale(0.2 -0.2)">
       <defs>
        <path d="M 40.578125 39.3125 
Q 47.65625 37.796875 51.625 33 
Q 55.609375 28.21875 55.609375 21.1875 
Q 55.609375 10.40625 48.1875 4.484375 
Q 40.765625 -1.421875 27.09375 -1.421875 
Q 22.515625 -1.421875 17.65625 -0.515625 
Q 12.796875 0.390625 7.625 2.203125 
L 7.625 11.71875 
Q 11.71875 9.328125 16.59375 8.109375 
Q 21.484375 6.890625 26.8125 6.890625 
Q 36.078125 6.890625 40.9375 10.546875 
Q 45.796875 14.203125 45.796875 21.1875 
Q 45.796875 27.640625 41.28125 31.265625 
Q 36.765625 34.90625 28.71875 34.90625 
L 20.21875 34.90625 
L 20.21875 43.015625 
L 29.109375 43.015625 
Q 36.375 43.015625 40.234375 45.921875 
Q 44.09375 48.828125 44.09375 54.296875 
Q 44.09375 59.90625 40.109375 62.90625 
Q 36.140625 65.921875 28.71875 65.921875 
Q 24.65625 65.921875 20.015625 65.03125 
Q 15.375 64.15625 9.8125 62.3125 
L 9.8125 71.09375 
Q 15.4375 72.65625 20.34375 73.4375 
Q 25.25 74.21875 29.59375 74.21875 
Q 40.828125 74.21875 47.359375 69.109375 
Q 53.90625 64.015625 53.90625 55.328125 
Q 53.90625 49.265625 50.4375 45.09375 
Q 46.96875 40.921875 40.578125 39.3125 
z
" id="DejaVuSans-51"/>
       </defs>
       <use xlink:href="#DejaVuSans-51"/>
       <use x="63.623047" xlink:href="#DejaVuSans-48"/>
       <use x="127.246094" xlink:href="#DejaVuSans-48"/>
      </g>
     </g>
    </g>
    <g id="ytick_5">
     <g id="line2d_9">
      <g>
       <use style="stroke:#000000;stroke-width:0.8;" x="85.409375" xlink:href="#m30de99b9b9" y="146.234355"/>
      </g>
     </g>
     <g id="text_10">
      <!-- 400 -->
      <g transform="translate(40.234375 153.832792)scale(0.2 -0.2)">
       <use xlink:href="#DejaVuSans-52"/>
       <use x="63.623047" xlink:href="#DejaVuSans-48"/>
       <use x="127.246094" xlink:href="#DejaVuSans-48"/>
      </g>
     </g>
    </g>
    <g id="ytick_6">
     <g id="line2d_10">
      <g>
       <use style="stroke:#000000;stroke-width:0.8;" x="85.409375" xlink:href="#m30de99b9b9" y="99.452943"/>
      </g>
     </g>
     <g id="text_11">
      <!-- 500 -->
      <g transform="translate(40.234375 107.051381)scale(0.2 -0.2)">
       <defs>
        <path d="M 10.796875 72.90625 
L 49.515625 72.90625 
L 49.515625 64.59375 
L 19.828125 64.59375 
L 19.828125 46.734375 
Q 21.96875 47.46875 24.109375 47.828125 
Q 26.265625 48.1875 28.421875 48.1875 
Q 40.625 48.1875 47.75 41.5 
Q 54.890625 34.8125 54.890625 23.390625 
Q 54.890625 11.625 47.5625 5.09375 
Q 40.234375 -1.421875 26.90625 -1.421875 
Q 22.3125 -1.421875 17.546875 -0.640625 
Q 12.796875 0.140625 7.71875 1.703125 
L 7.71875 11.625 
Q 12.109375 9.234375 16.796875 8.0625 
Q 21.484375 6.890625 26.703125 6.890625 
Q 35.15625 6.890625 40.078125 11.328125 
Q 45.015625 15.765625 45.015625 23.390625 
Q 45.015625 31 40.078125 35.4375 
Q 35.15625 39.890625 26.703125 39.890625 
Q 22.75 39.890625 18.8125 39.015625 
Q 14.890625 38.140625 10.796875 36.28125 
z
" id="DejaVuSans-53"/>
       </defs>
       <use xlink:href="#DejaVuSans-53"/>
       <use x="63.623047" xlink:href="#DejaVuSans-48"/>
       <use x="127.246094" xlink:href="#DejaVuSans-48"/>
      </g>
     </g>
    </g>
    <g id="ytick_7">
     <g id="line2d_11">
      <g>
       <use style="stroke:#000000;stroke-width:0.8;" x="85.409375" xlink:href="#m30de99b9b9" y="52.671532"/>
      </g>
     </g>
     <g id="text_12">
      <!-- 600 -->
      <g transform="translate(40.234375 60.269969)scale(0.2 -0.2)">
       <use xlink:href="#DejaVuSans-54"/>
       <use x="63.623047" xlink:href="#DejaVuSans-48"/>
       <use x="127.246094" xlink:href="#DejaVuSans-48"/>
      </g>
     </g>
    </g>
    <g id="text_13">
     <!-- Count (n.u.) -->
     <g transform="translate(29.995313 259.844062)rotate(-90)scale(0.3 -0.3)">
      <defs>
       <path d="M 64.40625 67.28125 
L 64.40625 56.890625 
Q 59.421875 61.53125 53.78125 63.8125 
Q 48.140625 66.109375 41.796875 66.109375 
Q 29.296875 66.109375 22.65625 58.46875 
Q 16.015625 50.828125 16.015625 36.375 
Q 16.015625 21.96875 22.65625 14.328125 
Q 29.296875 6.6875 41.796875 6.6875 
Q 48.140625 6.6875 53.78125 8.984375 
Q 59.421875 11.28125 64.40625 15.921875 
L 64.40625 5.609375 
Q 59.234375 2.09375 53.4375 0.328125 
Q 47.65625 -1.421875 41.21875 -1.421875 
Q 24.65625 -1.421875 15.125 8.703125 
Q 5.609375 18.84375 5.609375 36.375 
Q 5.609375 53.953125 15.125 64.078125 
Q 24.65625 74.21875 41.21875 74.21875 
Q 47.75 74.21875 53.53125 72.484375 
Q 59.328125 70.75 64.40625 67.28125 
z
" id="DejaVuSans-67"/>
       <path d="M 10.6875 12.40625 
L 21 12.40625 
L 21 0 
L 10.6875 0 
z
" id="DejaVuSans-46"/>
      </defs>
      <use xlink:href="#DejaVuSans-67"/>
      <use x="69.824219" xlink:href="#DejaVuSans-111"/>
      <use x="131.005859" xlink:href="#DejaVuSans-117"/>
      <use x="194.384766" xlink:href="#DejaVuSans-110"/>
      <use x="257.763672" xlink:href="#DejaVuSans-116"/>
      <use x="296.972656" xlink:href="#DejaVuSans-32"/>
      <use x="328.759766" xlink:href="#DejaVuSans-40"/>
      <use x="367.773438" xlink:href="#DejaVuSans-110"/>
      <use x="431.152344" xlink:href="#DejaVuSans-46"/>
      <use x="462.939453" xlink:href="#DejaVuSans-117"/>
      <use x="526.318359" xlink:href="#DejaVuSans-46"/>
      <use x="558.105469" xlink:href="#DejaVuSans-41"/>
     </g>
    </g>
   </g>
   <g id="patch_13">
    <path d="M 85.409375 333.36 
L 85.409375 7.2 
" style="fill:none;stroke:#000000;stroke-linecap:square;stroke-linejoin:miter;stroke-width:0.8;"/>
   </g>
   <g id="patch_14">
    <path d="M 531.809375 333.36 
L 531.809375 7.2 
" style="fill:none;stroke:#000000;stroke-linecap:square;stroke-linejoin:miter;stroke-width:0.8;"/>
   </g>
   <g id="patch_15">
    <path d="M 85.409375 333.36 
L 531.809375 333.36 
" style="fill:none;stroke:#000000;stroke-linecap:square;stroke-linejoin:miter;stroke-width:0.8;"/>
   </g>
   <g id="patch_16">
    <path d="M 85.409375 7.2 
L 531.809375 7.2 
" style="fill:none;stroke:#000000;stroke-linecap:square;stroke-linejoin:miter;stroke-width:0.8;"/>
   </g>
   <g id="patch_17">
    <path d="M 208.339248 246.406172 
L 210.501871 247.278757 
Q 181.879542 267.77988 153.49837 288.600132 
L 154.980313 289.235043 
Q 153.022058 289.9628 150.581488 290.0523 
Q 151.333955 287.728901 152.568736 286.043758 
L 152.774898 287.642746 
Q 180.553175 266.024674 208.090295 244.087472 
L 208.339248 246.406172 
z
" style="fill:#1f77b4;stroke:#000000;stroke-linecap:round;"/>
   </g>
  </g>
  <g id="axes_2">
   <g id="patch_18">
    <path d="M 209.649375 234.896 
L 499.809375 234.896 
L 499.809375 39.2 
L 209.649375 39.2 
z
" style="fill:#ffffff;"/>
   </g>
   <g id="patch_19">
    <path clip-path="url(#p98c16f8891)" d="M 222.838466 234.896 
L 225.476284 234.896 
L 225.476284 224.683554 
L 222.838466 224.683554 
z
" style="fill:#1f77b4;"/>
   </g>
   <g id="patch_20">
    <path clip-path="url(#p98c16f8891)" d="M 225.476284 234.896 
L 228.114102 234.896 
L 228.114102 48.518857 
L 225.476284 48.518857 
z
" style="fill:#1f77b4;"/>
   </g>
   <g id="patch_21">
    <path clip-path="url(#p98c16f8891)" d="M 228.114102 234.896 
L 230.75192 234.896 
L 230.75192 63.837526 
L 228.114102 63.837526 
z
" style="fill:#1f77b4;"/>
   </g>
   <g id="patch_22">
    <path clip-path="url(#p98c16f8891)" d="M 230.75192 234.896 
L 233.389739 234.896 
L 233.389739 163.408877 
L 230.75192 163.408877 
z
" style="fill:#1f77b4;"/>
   </g>
   <g id="patch_23">
    <path clip-path="url(#p98c16f8891)" d="M 233.389739 234.896 
L 236.027557 234.896 
L 236.027557 132.771538 
L 233.389739 132.771538 
z
" style="fill:#1f77b4;"/>
   </g>
   <g id="patch_24">
    <path clip-path="url(#p98c16f8891)" d="M 236.027557 234.896 
L 238.665375 234.896 
L 238.665375 145.537096 
L 236.027557 145.537096 
z
" style="fill:#1f77b4;"/>
   </g>
   <g id="patch_25">
    <path clip-path="url(#p98c16f8891)" d="M 238.665375 234.896 
L 241.303193 234.896 
L 241.303193 148.090207 
L 238.665375 148.090207 
z
" style="fill:#1f77b4;"/>
   </g>
   <g id="patch_26">
    <path clip-path="url(#p98c16f8891)" d="M 241.303193 234.896 
L 243.941011 234.896 
L 243.941011 168.5151 
L 241.303193 168.5151 
z
" style="fill:#1f77b4;"/>
   </g>
   <g id="patch_27">
    <path clip-path="url(#p98c16f8891)" d="M 243.941011 234.896 
L 246.57883 234.896 
L 246.57883 176.174434 
L 243.941011 176.174434 
z
" style="fill:#1f77b4;"/>
   </g>
   <g id="patch_28">
    <path clip-path="url(#p98c16f8891)" d="M 246.57883 234.896 
L 249.216648 234.896 
L 249.216648 181.280658 
L 246.57883 181.280658 
z
" style="fill:#1f77b4;"/>
   </g>
   <g id="patch_29">
    <path clip-path="url(#p98c16f8891)" d="M 249.216648 234.896 
L 251.854466 234.896 
L 251.854466 199.152438 
L 249.216648 199.152438 
z
" style="fill:#1f77b4;"/>
   </g>
   <g id="patch_30">
    <path clip-path="url(#p98c16f8891)" d="M 251.854466 234.896 
L 254.492284 234.896 
L 254.492284 199.152438 
L 251.854466 199.152438 
z
" style="fill:#1f77b4;"/>
   </g>
   <g id="patch_31">
    <path clip-path="url(#p98c16f8891)" d="M 254.492284 234.896 
L 257.130102 234.896 
L 257.130102 204.258661 
L 254.492284 204.258661 
z
" style="fill:#1f77b4;"/>
   </g>
   <g id="patch_32">
    <path clip-path="url(#p98c16f8891)" d="M 257.130102 234.896 
L 259.76792 234.896 
L 259.76792 206.811773 
L 257.130102 206.811773 
z
" style="fill:#1f77b4;"/>
   </g>
   <g id="patch_33">
    <path clip-path="url(#p98c16f8891)" d="M 259.76792 234.896 
L 262.405739 234.896 
L 262.405739 196.599327 
L 259.76792 196.599327 
z
" style="fill:#1f77b4;"/>
   </g>
   <g id="patch_34">
    <path clip-path="url(#p98c16f8891)" d="M 262.405739 234.896 
L 265.043557 234.896 
L 265.043557 217.024219 
L 262.405739 217.024219 
z
" style="fill:#1f77b4;"/>
   </g>
   <g id="patch_35">
    <path clip-path="url(#p98c16f8891)" d="M 265.043557 234.896 
L 267.681375 234.896 
L 267.681375 219.577331 
L 265.043557 219.577331 
z
" style="fill:#1f77b4;"/>
   </g>
   <g id="patch_36">
    <path clip-path="url(#p98c16f8891)" d="M 267.681375 234.896 
L 270.319193 234.896 
L 270.319193 217.024219 
L 267.681375 217.024219 
z
" style="fill:#1f77b4;"/>
   </g>
   <g id="patch_37">
    <path clip-path="url(#p98c16f8891)" d="M 270.319193 234.896 
L 272.957011 234.896 
L 272.957011 224.683554 
L 270.319193 224.683554 
z
" style="fill:#1f77b4;"/>
   </g>
   <g id="patch_38">
    <path clip-path="url(#p98c16f8891)" d="M 272.957011 234.896 
L 275.59483 234.896 
L 275.59483 224.683554 
L 272.957011 224.683554 
z
" style="fill:#1f77b4;"/>
   </g>
   <g id="patch_39">
    <path clip-path="url(#p98c16f8891)" d="M 275.59483 234.896 
L 278.232648 234.896 
L 278.232648 214.471108 
L 275.59483 214.471108 
z
" style="fill:#1f77b4;"/>
   </g>
   <g id="patch_40">
    <path clip-path="url(#p98c16f8891)" d="M 278.232648 234.896 
L 280.870466 234.896 
L 280.870466 224.683554 
L 278.232648 224.683554 
z
" style="fill:#1f77b4;"/>
   </g>
   <g id="patch_41">
    <path clip-path="url(#p98c16f8891)" d="M 280.870466 234.896 
L 283.508284 234.896 
L 283.508284 219.577331 
L 280.870466 219.577331 
z
" style="fill:#1f77b4;"/>
   </g>
   <g id="patch_42">
    <path clip-path="url(#p98c16f8891)" d="M 283.508284 234.896 
L 286.146102 234.896 
L 286.146102 229.789777 
L 283.508284 229.789777 
z
" style="fill:#1f77b4;"/>
   </g>
   <g id="patch_43">
    <path clip-path="url(#p98c16f8891)" d="M 286.146102 234.896 
L 288.78392 234.896 
L 288.78392 224.683554 
L 286.146102 224.683554 
z
" style="fill:#1f77b4;"/>
   </g>
   <g id="patch_44">
    <path clip-path="url(#p98c16f8891)" d="M 288.78392 234.896 
L 291.421739 234.896 
L 291.421739 214.471108 
L 288.78392 214.471108 
z
" style="fill:#1f77b4;"/>
   </g>
   <g id="patch_45">
    <path clip-path="url(#p98c16f8891)" d="M 291.421739 234.896 
L 294.059557 234.896 
L 294.059557 227.236665 
L 291.421739 227.236665 
z
" style="fill:#1f77b4;"/>
   </g>
   <g id="patch_46">
    <path clip-path="url(#p98c16f8891)" d="M 294.059557 234.896 
L 296.697375 234.896 
L 296.697375 224.683554 
L 294.059557 224.683554 
z
" style="fill:#1f77b4;"/>
   </g>
   <g id="patch_47">
    <path clip-path="url(#p98c16f8891)" d="M 296.697375 234.896 
L 299.335193 234.896 
L 299.335193 227.236665 
L 296.697375 227.236665 
z
" style="fill:#1f77b4;"/>
   </g>
   <g id="patch_48">
    <path clip-path="url(#p98c16f8891)" d="M 299.335193 234.896 
L 301.973011 234.896 
L 301.973011 224.683554 
L 299.335193 224.683554 
z
" style="fill:#1f77b4;"/>
   </g>
   <g id="patch_49">
    <path clip-path="url(#p98c16f8891)" d="M 301.973011 234.896 
L 304.61083 234.896 
L 304.61083 224.683554 
L 301.973011 224.683554 
z
" style="fill:#1f77b4;"/>
   </g>
   <g id="patch_50">
    <path clip-path="url(#p98c16f8891)" d="M 304.61083 234.896 
L 307.248648 234.896 
L 307.248648 229.789777 
L 304.61083 229.789777 
z
" style="fill:#1f77b4;"/>
   </g>
   <g id="patch_51">
    <path clip-path="url(#p98c16f8891)" d="M 307.248648 234.896 
L 309.886466 234.896 
L 309.886466 229.789777 
L 307.248648 229.789777 
z
" style="fill:#1f77b4;"/>
   </g>
   <g id="patch_52">
    <path clip-path="url(#p98c16f8891)" d="M 309.886466 234.896 
L 312.524284 234.896 
L 312.524284 219.577331 
L 309.886466 219.577331 
z
" style="fill:#1f77b4;"/>
   </g>
   <g id="patch_53">
    <path clip-path="url(#p98c16f8891)" d="M 312.524284 234.896 
L 315.162102 234.896 
L 315.162102 227.236665 
L 312.524284 227.236665 
z
" style="fill:#1f77b4;"/>
   </g>
   <g id="patch_54">
    <path clip-path="url(#p98c16f8891)" d="M 315.162102 234.896 
L 317.79992 234.896 
L 317.79992 229.789777 
L 315.162102 229.789777 
z
" style="fill:#1f77b4;"/>
   </g>
   <g id="patch_55">
    <path clip-path="url(#p98c16f8891)" d="M 317.79992 234.896 
L 320.437739 234.896 
L 320.437739 224.683554 
L 317.79992 224.683554 
z
" style="fill:#1f77b4;"/>
   </g>
   <g id="patch_56">
    <path clip-path="url(#p98c16f8891)" d="M 320.437739 234.896 
L 323.075557 234.896 
L 323.075557 232.342888 
L 320.437739 232.342888 
z
" style="fill:#1f77b4;"/>
   </g>
   <g id="patch_57">
    <path clip-path="url(#p98c16f8891)" d="M 323.075557 234.896 
L 325.713375 234.896 
L 325.713375 227.236665 
L 323.075557 227.236665 
z
" style="fill:#1f77b4;"/>
   </g>
   <g id="patch_58">
    <path clip-path="url(#p98c16f8891)" d="M 325.713375 234.896 
L 328.351193 234.896 
L 328.351193 232.342888 
L 325.713375 232.342888 
z
" style="fill:#1f77b4;"/>
   </g>
   <g id="patch_59">
    <path clip-path="url(#p98c16f8891)" d="M 328.351193 234.896 
L 330.989011 234.896 
L 330.989011 214.471108 
L 328.351193 214.471108 
z
" style="fill:#1f77b4;"/>
   </g>
   <g id="patch_60">
    <path clip-path="url(#p98c16f8891)" d="M 330.989011 234.896 
L 333.62683 234.896 
L 333.62683 227.236665 
L 330.989011 227.236665 
z
" style="fill:#1f77b4;"/>
   </g>
   <g id="patch_61">
    <path clip-path="url(#p98c16f8891)" d="M 333.62683 234.896 
L 336.264648 234.896 
L 336.264648 229.789777 
L 333.62683 229.789777 
z
" style="fill:#1f77b4;"/>
   </g>
   <g id="patch_62">
    <path clip-path="url(#p98c16f8891)" d="M 336.264648 234.896 
L 338.902466 234.896 
L 338.902466 229.789777 
L 336.264648 229.789777 
z
" style="fill:#1f77b4;"/>
   </g>
   <g id="patch_63">
    <path clip-path="url(#p98c16f8891)" d="M 338.902466 234.896 
L 341.540284 234.896 
L 341.540284 229.789777 
L 338.902466 229.789777 
z
" style="fill:#1f77b4;"/>
   </g>
   <g id="patch_64">
    <path clip-path="url(#p98c16f8891)" d="M 341.540284 234.896 
L 344.178102 234.896 
L 344.178102 227.236665 
L 341.540284 227.236665 
z
" style="fill:#1f77b4;"/>
   </g>
   <g id="patch_65">
    <path clip-path="url(#p98c16f8891)" d="M 344.178102 234.896 
L 346.81592 234.896 
L 346.81592 234.896 
L 344.178102 234.896 
z
" style="fill:#1f77b4;"/>
   </g>
   <g id="patch_66">
    <path clip-path="url(#p98c16f8891)" d="M 346.81592 234.896 
L 349.453739 234.896 
L 349.453739 229.789777 
L 346.81592 229.789777 
z
" style="fill:#1f77b4;"/>
   </g>
   <g id="patch_67">
    <path clip-path="url(#p98c16f8891)" d="M 349.453739 234.896 
L 352.091557 234.896 
L 352.091557 232.342888 
L 349.453739 232.342888 
z
" style="fill:#1f77b4;"/>
   </g>
   <g id="patch_68">
    <path clip-path="url(#p98c16f8891)" d="M 352.091557 234.896 
L 354.729375 234.896 
L 354.729375 227.236665 
L 352.091557 227.236665 
z
" style="fill:#1f77b4;"/>
   </g>
   <g id="patch_69">
    <path clip-path="url(#p98c16f8891)" d="M 354.729375 234.896 
L 357.367193 234.896 
L 357.367193 234.896 
L 354.729375 234.896 
z
" style="fill:#1f77b4;"/>
   </g>
   <g id="patch_70">
    <path clip-path="url(#p98c16f8891)" d="M 357.367193 234.896 
L 360.005011 234.896 
L 360.005011 224.683554 
L 357.367193 224.683554 
z
" style="fill:#1f77b4;"/>
   </g>
   <g id="patch_71">
    <path clip-path="url(#p98c16f8891)" d="M 360.005011 234.896 
L 362.64283 234.896 
L 362.64283 229.789777 
L 360.005011 229.789777 
z
" style="fill:#1f77b4;"/>
   </g>
   <g id="patch_72">
    <path clip-path="url(#p98c16f8891)" d="M 362.64283 234.896 
L 365.280648 234.896 
L 365.280648 229.789777 
L 362.64283 229.789777 
z
" style="fill:#1f77b4;"/>
   </g>
   <g id="patch_73">
    <path clip-path="url(#p98c16f8891)" d="M 365.280648 234.896 
L 367.918466 234.896 
L 367.918466 227.236665 
L 365.280648 227.236665 
z
" style="fill:#1f77b4;"/>
   </g>
   <g id="patch_74">
    <path clip-path="url(#p98c16f8891)" d="M 367.918466 234.896 
L 370.556284 234.896 
L 370.556284 229.789777 
L 367.918466 229.789777 
z
" style="fill:#1f77b4;"/>
   </g>
   <g id="patch_75">
    <path clip-path="url(#p98c16f8891)" d="M 370.556284 234.896 
L 373.194102 234.896 
L 373.194102 227.236665 
L 370.556284 227.236665 
z
" style="fill:#1f77b4;"/>
   </g>
   <g id="patch_76">
    <path clip-path="url(#p98c16f8891)" d="M 373.194102 234.896 
L 375.83192 234.896 
L 375.83192 229.789777 
L 373.194102 229.789777 
z
" style="fill:#1f77b4;"/>
   </g>
   <g id="patch_77">
    <path clip-path="url(#p98c16f8891)" d="M 375.83192 234.896 
L 378.469739 234.896 
L 378.469739 234.896 
L 375.83192 234.896 
z
" style="fill:#1f77b4;"/>
   </g>
   <g id="patch_78">
    <path clip-path="url(#p98c16f8891)" d="M 378.469739 234.896 
L 381.107557 234.896 
L 381.107557 232.342888 
L 378.469739 232.342888 
z
" style="fill:#1f77b4;"/>
   </g>
   <g id="patch_79">
    <path clip-path="url(#p98c16f8891)" d="M 381.107557 234.896 
L 383.745375 234.896 
L 383.745375 229.789777 
L 381.107557 229.789777 
z
" style="fill:#1f77b4;"/>
   </g>
   <g id="patch_80">
    <path clip-path="url(#p98c16f8891)" d="M 383.745375 234.896 
L 386.383193 234.896 
L 386.383193 234.896 
L 383.745375 234.896 
z
" style="fill:#1f77b4;"/>
   </g>
   <g id="patch_81">
    <path clip-path="url(#p98c16f8891)" d="M 386.383193 234.896 
L 389.021011 234.896 
L 389.021011 232.342888 
L 386.383193 232.342888 
z
" style="fill:#1f77b4;"/>
   </g>
   <g id="patch_82">
    <path clip-path="url(#p98c16f8891)" d="M 389.021011 234.896 
L 391.65883 234.896 
L 391.65883 232.342888 
L 389.021011 232.342888 
z
" style="fill:#1f77b4;"/>
   </g>
   <g id="patch_83">
    <path clip-path="url(#p98c16f8891)" d="M 391.65883 234.896 
L 394.296648 234.896 
L 394.296648 232.342888 
L 391.65883 232.342888 
z
" style="fill:#1f77b4;"/>
   </g>
   <g id="patch_84">
    <path clip-path="url(#p98c16f8891)" d="M 394.296648 234.896 
L 396.934466 234.896 
L 396.934466 232.342888 
L 394.296648 232.342888 
z
" style="fill:#1f77b4;"/>
   </g>
   <g id="patch_85">
    <path clip-path="url(#p98c16f8891)" d="M 396.934466 234.896 
L 399.572284 234.896 
L 399.572284 234.896 
L 396.934466 234.896 
z
" style="fill:#1f77b4;"/>
   </g>
   <g id="patch_86">
    <path clip-path="url(#p98c16f8891)" d="M 399.572284 234.896 
L 402.210102 234.896 
L 402.210102 232.342888 
L 399.572284 232.342888 
z
" style="fill:#1f77b4;"/>
   </g>
   <g id="patch_87">
    <path clip-path="url(#p98c16f8891)" d="M 402.210102 234.896 
L 404.84792 234.896 
L 404.84792 232.342888 
L 402.210102 232.342888 
z
" style="fill:#1f77b4;"/>
   </g>
   <g id="patch_88">
    <path clip-path="url(#p98c16f8891)" d="M 404.84792 234.896 
L 407.485739 234.896 
L 407.485739 234.896 
L 404.84792 234.896 
z
" style="fill:#1f77b4;"/>
   </g>
   <g id="patch_89">
    <path clip-path="url(#p98c16f8891)" d="M 407.485739 234.896 
L 410.123557 234.896 
L 410.123557 232.342888 
L 407.485739 232.342888 
z
" style="fill:#1f77b4;"/>
   </g>
   <g id="patch_90">
    <path clip-path="url(#p98c16f8891)" d="M 410.123557 234.896 
L 412.761375 234.896 
L 412.761375 234.896 
L 410.123557 234.896 
z
" style="fill:#1f77b4;"/>
   </g>
   <g id="patch_91">
    <path clip-path="url(#p98c16f8891)" d="M 412.761375 234.896 
L 415.399193 234.896 
L 415.399193 232.342888 
L 412.761375 232.342888 
z
" style="fill:#1f77b4;"/>
   </g>
   <g id="patch_92">
    <path clip-path="url(#p98c16f8891)" d="M 415.399193 234.896 
L 418.037011 234.896 
L 418.037011 232.342888 
L 415.399193 232.342888 
z
" style="fill:#1f77b4;"/>
   </g>
   <g id="patch_93">
    <path clip-path="url(#p98c16f8891)" d="M 418.037011 234.896 
L 420.67483 234.896 
L 420.67483 234.896 
L 418.037011 234.896 
z
" style="fill:#1f77b4;"/>
   </g>
   <g id="patch_94">
    <path clip-path="url(#p98c16f8891)" d="M 420.67483 234.896 
L 423.312648 234.896 
L 423.312648 234.896 
L 420.67483 234.896 
z
" style="fill:#1f77b4;"/>
   </g>
   <g id="patch_95">
    <path clip-path="url(#p98c16f8891)" d="M 423.312648 234.896 
L 425.950466 234.896 
L 425.950466 232.342888 
L 423.312648 232.342888 
z
" style="fill:#1f77b4;"/>
   </g>
   <g id="patch_96">
    <path clip-path="url(#p98c16f8891)" d="M 425.950466 234.896 
L 428.588284 234.896 
L 428.588284 234.896 
L 425.950466 234.896 
z
" style="fill:#1f77b4;"/>
   </g>
   <g id="patch_97">
    <path clip-path="url(#p98c16f8891)" d="M 428.588284 234.896 
L 431.226102 234.896 
L 431.226102 229.789777 
L 428.588284 229.789777 
z
" style="fill:#1f77b4;"/>
   </g>
   <g id="patch_98">
    <path clip-path="url(#p98c16f8891)" d="M 431.226102 234.896 
L 433.86392 234.896 
L 433.86392 232.342888 
L 431.226102 232.342888 
z
" style="fill:#1f77b4;"/>
   </g>
   <g id="patch_99">
    <path clip-path="url(#p98c16f8891)" d="M 433.86392 234.896 
L 436.501739 234.896 
L 436.501739 232.342888 
L 433.86392 232.342888 
z
" style="fill:#1f77b4;"/>
   </g>
   <g id="patch_100">
    <path clip-path="url(#p98c16f8891)" d="M 436.501739 234.896 
L 439.139557 234.896 
L 439.139557 232.342888 
L 436.501739 232.342888 
z
" style="fill:#1f77b4;"/>
   </g>
   <g id="patch_101">
    <path clip-path="url(#p98c16f8891)" d="M 439.139557 234.896 
L 441.777375 234.896 
L 441.777375 232.342888 
L 439.139557 232.342888 
z
" style="fill:#1f77b4;"/>
   </g>
   <g id="patch_102">
    <path clip-path="url(#p98c16f8891)" d="M 441.777375 234.896 
L 444.415193 234.896 
L 444.415193 232.342888 
L 441.777375 232.342888 
z
" style="fill:#1f77b4;"/>
   </g>
   <g id="patch_103">
    <path clip-path="url(#p98c16f8891)" d="M 444.415193 234.896 
L 447.053011 234.896 
L 447.053011 229.789777 
L 444.415193 229.789777 
z
" style="fill:#1f77b4;"/>
   </g>
   <g id="patch_104">
    <path clip-path="url(#p98c16f8891)" d="M 447.053011 234.896 
L 449.69083 234.896 
L 449.69083 229.789777 
L 447.053011 229.789777 
z
" style="fill:#1f77b4;"/>
   </g>
   <g id="patch_105">
    <path clip-path="url(#p98c16f8891)" d="M 449.69083 234.896 
L 452.328648 234.896 
L 452.328648 229.789777 
L 449.69083 229.789777 
z
" style="fill:#1f77b4;"/>
   </g>
   <g id="patch_106">
    <path clip-path="url(#p98c16f8891)" d="M 452.328648 234.896 
L 454.966466 234.896 
L 454.966466 234.896 
L 452.328648 234.896 
z
" style="fill:#1f77b4;"/>
   </g>
   <g id="patch_107">
    <path clip-path="url(#p98c16f8891)" d="M 454.966466 234.896 
L 457.604284 234.896 
L 457.604284 234.896 
L 454.966466 234.896 
z
" style="fill:#1f77b4;"/>
   </g>
   <g id="patch_108">
    <path clip-path="url(#p98c16f8891)" d="M 457.604284 234.896 
L 460.242102 234.896 
L 460.242102 234.896 
L 457.604284 234.896 
z
" style="fill:#1f77b4;"/>
   </g>
   <g id="patch_109">
    <path clip-path="url(#p98c16f8891)" d="M 460.242102 234.896 
L 462.87992 234.896 
L 462.87992 232.342888 
L 460.242102 232.342888 
z
" style="fill:#1f77b4;"/>
   </g>
   <g id="patch_110">
    <path clip-path="url(#p98c16f8891)" d="M 462.87992 234.896 
L 465.517739 234.896 
L 465.517739 232.342888 
L 462.87992 232.342888 
z
" style="fill:#1f77b4;"/>
   </g>
   <g id="patch_111">
    <path clip-path="url(#p98c16f8891)" d="M 465.517739 234.896 
L 468.155557 234.896 
L 468.155557 227.236665 
L 465.517739 227.236665 
z
" style="fill:#1f77b4;"/>
   </g>
   <g id="patch_112">
    <path clip-path="url(#p98c16f8891)" d="M 468.155557 234.896 
L 470.793375 234.896 
L 470.793375 229.789777 
L 468.155557 229.789777 
z
" style="fill:#1f77b4;"/>
   </g>
   <g id="patch_113">
    <path clip-path="url(#p98c16f8891)" d="M 470.793375 234.896 
L 473.431193 234.896 
L 473.431193 234.896 
L 470.793375 234.896 
z
" style="fill:#1f77b4;"/>
   </g>
   <g id="patch_114">
    <path clip-path="url(#p98c16f8891)" d="M 473.431193 234.896 
L 476.069011 234.896 
L 476.069011 232.342888 
L 473.431193 232.342888 
z
" style="fill:#1f77b4;"/>
   </g>
   <g id="patch_115">
    <path clip-path="url(#p98c16f8891)" d="M 476.069011 234.896 
L 478.70683 234.896 
L 478.70683 234.896 
L 476.069011 234.896 
z
" style="fill:#1f77b4;"/>
   </g>
   <g id="patch_116">
    <path clip-path="url(#p98c16f8891)" d="M 478.70683 234.896 
L 481.344648 234.896 
L 481.344648 234.896 
L 478.70683 234.896 
z
" style="fill:#1f77b4;"/>
   </g>
   <g id="patch_117">
    <path clip-path="url(#p98c16f8891)" d="M 481.344648 234.896 
L 483.982466 234.896 
L 483.982466 232.342888 
L 481.344648 232.342888 
z
" style="fill:#1f77b4;"/>
   </g>
   <g id="patch_118">
    <path clip-path="url(#p98c16f8891)" d="M 483.982466 234.896 
L 486.620284 234.896 
L 486.620284 232.342888 
L 483.982466 232.342888 
z
" style="fill:#1f77b4;"/>
   </g>
   <g id="matplotlib.axis_3">
    <g id="xtick_5">
     <g id="line2d_12">
      <g>
       <use style="stroke:#000000;stroke-width:0.8;" x="220.709847" xlink:href="#medc0ddc8b5" y="234.896"/>
      </g>
     </g>
     <g id="text_14">
      <!-- 0 -->
      <g transform="translate(214.347347 257.092875)scale(0.2 -0.2)">
       <use xlink:href="#DejaVuSans-48"/>
      </g>
     </g>
    </g>
    <g id="xtick_6">
     <g id="line2d_13">
      <g>
       <use style="stroke:#000000;stroke-width:0.8;" x="359.835278" xlink:href="#medc0ddc8b5" y="234.896"/>
      </g>
     </g>
     <g id="text_15">
      <!-- 50 -->
      <g transform="translate(347.110278 257.092875)scale(0.2 -0.2)">
       <use xlink:href="#DejaVuSans-53"/>
       <use x="63.623047" xlink:href="#DejaVuSans-48"/>
      </g>
     </g>
    </g>
    <g id="xtick_7">
     <g id="line2d_14">
      <g>
       <use style="stroke:#000000;stroke-width:0.8;" x="498.96071" xlink:href="#medc0ddc8b5" y="234.896"/>
      </g>
     </g>
     <g id="text_16">
      <!-- 100 -->
      <g transform="translate(479.87321 257.092875)scale(0.2 -0.2)">
       <use xlink:href="#DejaVuSans-49"/>
       <use x="63.623047" xlink:href="#DejaVuSans-48"/>
       <use x="127.246094" xlink:href="#DejaVuSans-48"/>
      </g>
     </g>
    </g>
   </g>
   <g id="matplotlib.axis_4">
    <g id="ytick_8">
     <g id="line2d_15">
      <g>
       <use style="stroke:#000000;stroke-width:0.8;" x="209.649375" xlink:href="#m30de99b9b9" y="234.896"/>
      </g>
     </g>
     <g id="text_17">
      <!-- 0 -->
      <g transform="translate(189.924375 242.494437)scale(0.2 -0.2)">
       <use xlink:href="#DejaVuSans-48"/>
      </g>
     </g>
    </g>
    <g id="ytick_9">
     <g id="line2d_16">
      <g>
       <use style="stroke:#000000;stroke-width:0.8;" x="209.649375" xlink:href="#m30de99b9b9" y="183.833769"/>
      </g>
     </g>
     <g id="text_18">
      <!-- 20 -->
      <g transform="translate(177.199375 191.432207)scale(0.2 -0.2)">
       <use xlink:href="#DejaVuSans-50"/>
       <use x="63.623047" xlink:href="#DejaVuSans-48"/>
      </g>
     </g>
    </g>
    <g id="ytick_10">
     <g id="line2d_17">
      <g>
       <use style="stroke:#000000;stroke-width:0.8;" x="209.649375" xlink:href="#m30de99b9b9" y="132.771538"/>
      </g>
     </g>
     <g id="text_19">
      <!-- 40 -->
      <g transform="translate(177.199375 140.369976)scale(0.2 -0.2)">
       <use xlink:href="#DejaVuSans-52"/>
       <use x="63.623047" xlink:href="#DejaVuSans-48"/>
      </g>
     </g>
    </g>
    <g id="ytick_11">
     <g id="line2d_18">
      <g>
       <use style="stroke:#000000;stroke-width:0.8;" x="209.649375" xlink:href="#m30de99b9b9" y="81.709307"/>
      </g>
     </g>
     <g id="text_20">
      <!-- 60 -->
      <g transform="translate(177.199375 89.307745)scale(0.2 -0.2)">
       <use xlink:href="#DejaVuSans-54"/>
       <use x="63.623047" xlink:href="#DejaVuSans-48"/>
      </g>
     </g>
    </g>
   </g>
   <g id="patch_119">
    <path d="M 209.649375 234.896 
L 209.649375 39.2 
" style="fill:none;stroke:#000000;stroke-linecap:square;stroke-linejoin:miter;stroke-width:0.8;"/>
   </g>
   <g id="patch_120">
    <path d="M 499.809375 234.896 
L 499.809375 39.2 
" style="fill:none;stroke:#000000;stroke-linecap:square;stroke-linejoin:miter;stroke-width:0.8;"/>
   </g>
   <g id="patch_121">
    <path d="M 209.649375 234.896 
L 499.809375 234.896 
" style="fill:none;stroke:#000000;stroke-linecap:square;stroke-linejoin:miter;stroke-width:0.8;"/>
   </g>
   <g id="patch_122">
    <path d="M 209.649375 39.2 
L 499.809375 39.2 
" style="fill:none;stroke:#000000;stroke-linecap:square;stroke-linejoin:miter;stroke-width:0.8;"/>
   </g>
  </g>
 </g>
 <defs>
  <clipPath id="p7d212542d8">
   <rect height="326.16" width="446.4" x="85.409375" y="7.2"/>
  </clipPath>
  <clipPath id="p98c16f8891">
   <rect height="195.696" width="290.16" x="209.649375" y="39.2"/>
  </clipPath>
 </defs>
</svg>
