<?xml version="1.0" encoding="utf-8" standalone="no"?>
<!DOCTYPE svg PUBLIC "-//W3C//DTD SVG 1.1//EN"
  "http://www.w3.org/Graphics/SVG/1.1/DTD/svg11.dtd">
<!-- Created with matplotlib (https://matplotlib.org/) -->
<svg height="399.950625pt" version="1.1" viewBox="0 0 901.11875 399.950625" width="901.11875pt" xmlns="http://www.w3.org/2000/svg" xmlns:xlink="http://www.w3.org/1999/xlink">
 <metadata>
  <rdf:RDF xmlns:cc="http://creativecommons.org/ns#" xmlns:dc="http://purl.org/dc/elements/1.1/" xmlns:rdf="http://www.w3.org/1999/02/22-rdf-syntax-ns#">
   <cc:Work>
    <dc:type rdf:resource="http://purl.org/dc/dcmitype/StillImage"/>
    <dc:date>2022-08-27T00:21:21.631245</dc:date>
    <dc:format>image/svg+xml</dc:format>
    <dc:creator>
     <cc:Agent>
      <dc:title>Matplotlib v3.3.4, https://matplotlib.org/</dc:title>
     </cc:Agent>
    </dc:creator>
   </cc:Work>
  </rdf:RDF>
 </metadata>
 <defs>
  <style type="text/css">*{stroke-linecap:butt;stroke-linejoin:round;}</style>
 </defs>
 <g id="figure_1">
  <g id="patch_1">
   <path d="M 0 399.950625 
L 901.11875 399.950625 
L 901.11875 0 
L 0 0 
z
" style="fill:none;"/>
  </g>
  <g id="axes_1">
   <g id="patch_2">
    <path d="M 59.959375 333.36 
L 841.159375 333.36 
L 841.159375 7.2 
L 59.959375 7.2 
z
" style="fill:#ffffff;"/>
   </g>
   <g id="patch_3">
    <path clip-path="url(#p578e01f9d6)" d="M 393.894042 333.36 
L 393.894042 7.2 
L 466.724094 7.2 
L 466.724094 333.36 
z
" style="fill:#ff0000;opacity:0.2;stroke:#ff0000;stroke-linejoin:miter;"/>
   </g>
   <g id="patch_4">
    <path clip-path="url(#p578e01f9d6)" d="M 312.182277 333.36 
L 312.182277 7.2 
L 393.894042 7.2 
L 393.894042 333.36 
z
" style="fill:#1f77b4;opacity:0.2;stroke:#1f77b4;stroke-linejoin:miter;"/>
   </g>
   <g id="patch_5">
    <path clip-path="url(#p578e01f9d6)" d="M 466.724094 333.36 
L 466.724094 7.2 
L 497.987726 7.2 
L 497.987726 333.36 
z
" style="fill:#1f77b4;opacity:0.2;stroke:#1f77b4;stroke-linejoin:miter;"/>
   </g>
   <g id="matplotlib.axis_1">
    <g id="xtick_1">
     <g id="line2d_1">
      <defs>
       <path d="M 0 0 
L 0 3.5 
" id="md5dd6e2b16" style="stroke:#000000;stroke-width:0.8;"/>
      </defs>
      <g>
       <use style="stroke:#000000;stroke-width:0.8;" x="95.468466" xlink:href="#md5dd6e2b16" y="333.36"/>
      </g>
     </g>
     <g id="text_1">
      <!-- 0 -->
      <g transform="translate(89.105966 355.556875)scale(0.2 -0.2)">
       <defs>
        <path d="M 31.78125 66.40625 
Q 24.171875 66.40625 20.328125 58.90625 
Q 16.5 51.421875 16.5 36.375 
Q 16.5 21.390625 20.328125 13.890625 
Q 24.171875 6.390625 31.78125 6.390625 
Q 39.453125 6.390625 43.28125 13.890625 
Q 47.125 21.390625 47.125 36.375 
Q 47.125 51.421875 43.28125 58.90625 
Q 39.453125 66.40625 31.78125 66.40625 
z
M 31.78125 74.21875 
Q 44.046875 74.21875 50.515625 64.515625 
Q 56.984375 54.828125 56.984375 36.375 
Q 56.984375 17.96875 50.515625 8.265625 
Q 44.046875 -1.421875 31.78125 -1.421875 
Q 19.53125 -1.421875 13.0625 8.265625 
Q 6.59375 17.96875 6.59375 36.375 
Q 6.59375 54.828125 13.0625 64.515625 
Q 19.53125 74.21875 31.78125 74.21875 
z
" id="DejaVuSans-48"/>
       </defs>
       <use xlink:href="#DejaVuSans-48"/>
      </g>
     </g>
    </g>
    <g id="xtick_2">
     <g id="line2d_2">
      <g>
       <use style="stroke:#000000;stroke-width:0.8;" x="184.285602" xlink:href="#md5dd6e2b16" y="333.36"/>
      </g>
     </g>
     <g id="text_2">
      <!-- 250 -->
      <g transform="translate(165.198102 355.556875)scale(0.2 -0.2)">
       <defs>
        <path d="M 19.1875 8.296875 
L 53.609375 8.296875 
L 53.609375 0 
L 7.328125 0 
L 7.328125 8.296875 
Q 12.9375 14.109375 22.625 23.890625 
Q 32.328125 33.6875 34.8125 36.53125 
Q 39.546875 41.84375 41.421875 45.53125 
Q 43.3125 49.21875 43.3125 52.78125 
Q 43.3125 58.59375 39.234375 62.25 
Q 35.15625 65.921875 28.609375 65.921875 
Q 23.96875 65.921875 18.8125 64.3125 
Q 13.671875 62.703125 7.8125 59.421875 
L 7.8125 69.390625 
Q 13.765625 71.78125 18.9375 73 
Q 24.125 74.21875 28.421875 74.21875 
Q 39.75 74.21875 46.484375 68.546875 
Q 53.21875 62.890625 53.21875 53.421875 
Q 53.21875 48.921875 51.53125 44.890625 
Q 49.859375 40.875 45.40625 35.40625 
Q 44.1875 33.984375 37.640625 27.21875 
Q 31.109375 20.453125 19.1875 8.296875 
z
" id="DejaVuSans-50"/>
        <path d="M 10.796875 72.90625 
L 49.515625 72.90625 
L 49.515625 64.59375 
L 19.828125 64.59375 
L 19.828125 46.734375 
Q 21.96875 47.46875 24.109375 47.828125 
Q 26.265625 48.1875 28.421875 48.1875 
Q 40.625 48.1875 47.75 41.5 
Q 54.890625 34.8125 54.890625 23.390625 
Q 54.890625 11.625 47.5625 5.09375 
Q 40.234375 -1.421875 26.90625 -1.421875 
Q 22.3125 -1.421875 17.546875 -0.640625 
Q 12.796875 0.140625 7.71875 1.703125 
L 7.71875 11.625 
Q 12.109375 9.234375 16.796875 8.0625 
Q 21.484375 6.890625 26.703125 6.890625 
Q 35.15625 6.890625 40.078125 11.328125 
Q 45.015625 15.765625 45.015625 23.390625 
Q 45.015625 31 40.078125 35.4375 
Q 35.15625 39.890625 26.703125 39.890625 
Q 22.75 39.890625 18.8125 39.015625 
Q 14.890625 38.140625 10.796875 36.28125 
z
" id="DejaVuSans-53"/>
       </defs>
       <use xlink:href="#DejaVuSans-50"/>
       <use x="63.623047" xlink:href="#DejaVuSans-53"/>
       <use x="127.246094" xlink:href="#DejaVuSans-48"/>
      </g>
     </g>
    </g>
    <g id="xtick_3">
     <g id="line2d_3">
      <g>
       <use style="stroke:#000000;stroke-width:0.8;" x="273.102738" xlink:href="#md5dd6e2b16" y="333.36"/>
      </g>
     </g>
     <g id="text_3">
      <!-- 500 -->
      <g transform="translate(254.015238 355.556875)scale(0.2 -0.2)">
       <use xlink:href="#DejaVuSans-53"/>
       <use x="63.623047" xlink:href="#DejaVuSans-48"/>
       <use x="127.246094" xlink:href="#DejaVuSans-48"/>
      </g>
     </g>
    </g>
    <g id="xtick_4">
     <g id="line2d_4">
      <g>
       <use style="stroke:#000000;stroke-width:0.8;" x="361.919873" xlink:href="#md5dd6e2b16" y="333.36"/>
      </g>
     </g>
     <g id="text_4">
      <!-- 750 -->
      <g transform="translate(342.832373 355.556875)scale(0.2 -0.2)">
       <defs>
        <path d="M 8.203125 72.90625 
L 55.078125 72.90625 
L 55.078125 68.703125 
L 28.609375 0 
L 18.3125 0 
L 43.21875 64.59375 
L 8.203125 64.59375 
z
" id="DejaVuSans-55"/>
       </defs>
       <use xlink:href="#DejaVuSans-55"/>
       <use x="63.623047" xlink:href="#DejaVuSans-53"/>
       <use x="127.246094" xlink:href="#DejaVuSans-48"/>
      </g>
     </g>
    </g>
    <g id="xtick_5">
     <g id="line2d_5">
      <g>
       <use style="stroke:#000000;stroke-width:0.8;" x="450.737009" xlink:href="#md5dd6e2b16" y="333.36"/>
      </g>
     </g>
     <g id="text_5">
      <!-- 1000 -->
      <g transform="translate(425.287009 355.556875)scale(0.2 -0.2)">
       <defs>
        <path d="M 12.40625 8.296875 
L 28.515625 8.296875 
L 28.515625 63.921875 
L 10.984375 60.40625 
L 10.984375 69.390625 
L 28.421875 72.90625 
L 38.28125 72.90625 
L 38.28125 8.296875 
L 54.390625 8.296875 
L 54.390625 0 
L 12.40625 0 
z
" id="DejaVuSans-49"/>
       </defs>
       <use xlink:href="#DejaVuSans-49"/>
       <use x="63.623047" xlink:href="#DejaVuSans-48"/>
       <use x="127.246094" xlink:href="#DejaVuSans-48"/>
       <use x="190.869141" xlink:href="#DejaVuSans-48"/>
      </g>
     </g>
    </g>
    <g id="xtick_6">
     <g id="line2d_6">
      <g>
       <use style="stroke:#000000;stroke-width:0.8;" x="539.554145" xlink:href="#md5dd6e2b16" y="333.36"/>
      </g>
     </g>
     <g id="text_6">
      <!-- 1250 -->
      <g transform="translate(514.104145 355.556875)scale(0.2 -0.2)">
       <use xlink:href="#DejaVuSans-49"/>
       <use x="63.623047" xlink:href="#DejaVuSans-50"/>
       <use x="127.246094" xlink:href="#DejaVuSans-53"/>
       <use x="190.869141" xlink:href="#DejaVuSans-48"/>
      </g>
     </g>
    </g>
    <g id="xtick_7">
     <g id="line2d_7">
      <g>
       <use style="stroke:#000000;stroke-width:0.8;" x="628.371281" xlink:href="#md5dd6e2b16" y="333.36"/>
      </g>
     </g>
     <g id="text_7">
      <!-- 1500 -->
      <g transform="translate(602.921281 355.556875)scale(0.2 -0.2)">
       <use xlink:href="#DejaVuSans-49"/>
       <use x="63.623047" xlink:href="#DejaVuSans-53"/>
       <use x="127.246094" xlink:href="#DejaVuSans-48"/>
       <use x="190.869141" xlink:href="#DejaVuSans-48"/>
      </g>
     </g>
    </g>
    <g id="xtick_8">
     <g id="line2d_8">
      <g>
       <use style="stroke:#000000;stroke-width:0.8;" x="717.188417" xlink:href="#md5dd6e2b16" y="333.36"/>
      </g>
     </g>
     <g id="text_8">
      <!-- 1750 -->
      <g transform="translate(691.738417 355.556875)scale(0.2 -0.2)">
       <use xlink:href="#DejaVuSans-49"/>
       <use x="63.623047" xlink:href="#DejaVuSans-55"/>
       <use x="127.246094" xlink:href="#DejaVuSans-53"/>
       <use x="190.869141" xlink:href="#DejaVuSans-48"/>
      </g>
     </g>
    </g>
    <g id="xtick_9">
     <g id="line2d_9">
      <g>
       <use style="stroke:#000000;stroke-width:0.8;" x="806.005553" xlink:href="#md5dd6e2b16" y="333.36"/>
      </g>
     </g>
     <g id="text_9">
      <!-- 2000 -->
      <g transform="translate(780.555553 355.556875)scale(0.2 -0.2)">
       <use xlink:href="#DejaVuSans-50"/>
       <use x="63.623047" xlink:href="#DejaVuSans-48"/>
       <use x="127.246094" xlink:href="#DejaVuSans-48"/>
       <use x="190.869141" xlink:href="#DejaVuSans-48"/>
      </g>
     </g>
    </g>
    <g id="text_10">
     <!-- Sample Points (n.u.) -->
     <g transform="translate(299.48125 386.511563)scale(0.3 -0.3)">
      <defs>
       <path d="M 53.515625 70.515625 
L 53.515625 60.890625 
Q 47.90625 63.578125 42.921875 64.890625 
Q 37.9375 66.21875 33.296875 66.21875 
Q 25.25 66.21875 20.875 63.09375 
Q 16.5 59.96875 16.5 54.203125 
Q 16.5 49.359375 19.40625 46.890625 
Q 22.3125 44.4375 30.421875 42.921875 
L 36.375 41.703125 
Q 47.40625 39.59375 52.65625 34.296875 
Q 57.90625 29 57.90625 20.125 
Q 57.90625 9.515625 50.796875 4.046875 
Q 43.703125 -1.421875 29.984375 -1.421875 
Q 24.8125 -1.421875 18.96875 -0.25 
Q 13.140625 0.921875 6.890625 3.21875 
L 6.890625 13.375 
Q 12.890625 10.015625 18.65625 8.296875 
Q 24.421875 6.59375 29.984375 6.59375 
Q 38.421875 6.59375 43.015625 9.90625 
Q 47.609375 13.234375 47.609375 19.390625 
Q 47.609375 24.75 44.3125 27.78125 
Q 41.015625 30.8125 33.5 32.328125 
L 27.484375 33.5 
Q 16.453125 35.6875 11.515625 40.375 
Q 6.59375 45.0625 6.59375 53.421875 
Q 6.59375 63.09375 13.40625 68.65625 
Q 20.21875 74.21875 32.171875 74.21875 
Q 37.3125 74.21875 42.625 73.28125 
Q 47.953125 72.359375 53.515625 70.515625 
z
" id="DejaVuSans-83"/>
       <path d="M 34.28125 27.484375 
Q 23.390625 27.484375 19.1875 25 
Q 14.984375 22.515625 14.984375 16.5 
Q 14.984375 11.71875 18.140625 8.90625 
Q 21.296875 6.109375 26.703125 6.109375 
Q 34.1875 6.109375 38.703125 11.40625 
Q 43.21875 16.703125 43.21875 25.484375 
L 43.21875 27.484375 
z
M 52.203125 31.203125 
L 52.203125 0 
L 43.21875 0 
L 43.21875 8.296875 
Q 40.140625 3.328125 35.546875 0.953125 
Q 30.953125 -1.421875 24.3125 -1.421875 
Q 15.921875 -1.421875 10.953125 3.296875 
Q 6 8.015625 6 15.921875 
Q 6 25.140625 12.171875 29.828125 
Q 18.359375 34.515625 30.609375 34.515625 
L 43.21875 34.515625 
L 43.21875 35.40625 
Q 43.21875 41.609375 39.140625 45 
Q 35.0625 48.390625 27.6875 48.390625 
Q 23 48.390625 18.546875 47.265625 
Q 14.109375 46.140625 10.015625 43.890625 
L 10.015625 52.203125 
Q 14.9375 54.109375 19.578125 55.046875 
Q 24.21875 56 28.609375 56 
Q 40.484375 56 46.34375 49.84375 
Q 52.203125 43.703125 52.203125 31.203125 
z
" id="DejaVuSans-97"/>
       <path d="M 52 44.1875 
Q 55.375 50.25 60.0625 53.125 
Q 64.75 56 71.09375 56 
Q 79.640625 56 84.28125 50.015625 
Q 88.921875 44.046875 88.921875 33.015625 
L 88.921875 0 
L 79.890625 0 
L 79.890625 32.71875 
Q 79.890625 40.578125 77.09375 44.375 
Q 74.3125 48.1875 68.609375 48.1875 
Q 61.625 48.1875 57.5625 43.546875 
Q 53.515625 38.921875 53.515625 30.90625 
L 53.515625 0 
L 44.484375 0 
L 44.484375 32.71875 
Q 44.484375 40.625 41.703125 44.40625 
Q 38.921875 48.1875 33.109375 48.1875 
Q 26.21875 48.1875 22.15625 43.53125 
Q 18.109375 38.875 18.109375 30.90625 
L 18.109375 0 
L 9.078125 0 
L 9.078125 54.6875 
L 18.109375 54.6875 
L 18.109375 46.1875 
Q 21.1875 51.21875 25.484375 53.609375 
Q 29.78125 56 35.6875 56 
Q 41.65625 56 45.828125 52.96875 
Q 50 49.953125 52 44.1875 
z
" id="DejaVuSans-109"/>
       <path d="M 18.109375 8.203125 
L 18.109375 -20.796875 
L 9.078125 -20.796875 
L 9.078125 54.6875 
L 18.109375 54.6875 
L 18.109375 46.390625 
Q 20.953125 51.265625 25.265625 53.625 
Q 29.59375 56 35.59375 56 
Q 45.5625 56 51.78125 48.09375 
Q 58.015625 40.1875 58.015625 27.296875 
Q 58.015625 14.40625 51.78125 6.484375 
Q 45.5625 -1.421875 35.59375 -1.421875 
Q 29.59375 -1.421875 25.265625 0.953125 
Q 20.953125 3.328125 18.109375 8.203125 
z
M 48.6875 27.296875 
Q 48.6875 37.203125 44.609375 42.84375 
Q 40.53125 48.484375 33.40625 48.484375 
Q 26.265625 48.484375 22.1875 42.84375 
Q 18.109375 37.203125 18.109375 27.296875 
Q 18.109375 17.390625 22.1875 11.75 
Q 26.265625 6.109375 33.40625 6.109375 
Q 40.53125 6.109375 44.609375 11.75 
Q 48.6875 17.390625 48.6875 27.296875 
z
" id="DejaVuSans-112"/>
       <path d="M 9.421875 75.984375 
L 18.40625 75.984375 
L 18.40625 0 
L 9.421875 0 
z
" id="DejaVuSans-108"/>
       <path d="M 56.203125 29.59375 
L 56.203125 25.203125 
L 14.890625 25.203125 
Q 15.484375 15.921875 20.484375 11.0625 
Q 25.484375 6.203125 34.421875 6.203125 
Q 39.59375 6.203125 44.453125 7.46875 
Q 49.3125 8.734375 54.109375 11.28125 
L 54.109375 2.78125 
Q 49.265625 0.734375 44.1875 -0.34375 
Q 39.109375 -1.421875 33.890625 -1.421875 
Q 20.796875 -1.421875 13.15625 6.1875 
Q 5.515625 13.8125 5.515625 26.8125 
Q 5.515625 40.234375 12.765625 48.109375 
Q 20.015625 56 32.328125 56 
Q 43.359375 56 49.78125 48.890625 
Q 56.203125 41.796875 56.203125 29.59375 
z
M 47.21875 32.234375 
Q 47.125 39.59375 43.09375 43.984375 
Q 39.0625 48.390625 32.421875 48.390625 
Q 24.90625 48.390625 20.390625 44.140625 
Q 15.875 39.890625 15.1875 32.171875 
z
" id="DejaVuSans-101"/>
       <path id="DejaVuSans-32"/>
       <path d="M 19.671875 64.796875 
L 19.671875 37.40625 
L 32.078125 37.40625 
Q 38.96875 37.40625 42.71875 40.96875 
Q 46.484375 44.53125 46.484375 51.125 
Q 46.484375 57.671875 42.71875 61.234375 
Q 38.96875 64.796875 32.078125 64.796875 
z
M 9.8125 72.90625 
L 32.078125 72.90625 
Q 44.34375 72.90625 50.609375 67.359375 
Q 56.890625 61.8125 56.890625 51.125 
Q 56.890625 40.328125 50.609375 34.8125 
Q 44.34375 29.296875 32.078125 29.296875 
L 19.671875 29.296875 
L 19.671875 0 
L 9.8125 0 
z
" id="DejaVuSans-80"/>
       <path d="M 30.609375 48.390625 
Q 23.390625 48.390625 19.1875 42.75 
Q 14.984375 37.109375 14.984375 27.296875 
Q 14.984375 17.484375 19.15625 11.84375 
Q 23.34375 6.203125 30.609375 6.203125 
Q 37.796875 6.203125 41.984375 11.859375 
Q 46.1875 17.53125 46.1875 27.296875 
Q 46.1875 37.015625 41.984375 42.703125 
Q 37.796875 48.390625 30.609375 48.390625 
z
M 30.609375 56 
Q 42.328125 56 49.015625 48.375 
Q 55.71875 40.765625 55.71875 27.296875 
Q 55.71875 13.875 49.015625 6.21875 
Q 42.328125 -1.421875 30.609375 -1.421875 
Q 18.84375 -1.421875 12.171875 6.21875 
Q 5.515625 13.875 5.515625 27.296875 
Q 5.515625 40.765625 12.171875 48.375 
Q 18.84375 56 30.609375 56 
z
" id="DejaVuSans-111"/>
       <path d="M 9.421875 54.6875 
L 18.40625 54.6875 
L 18.40625 0 
L 9.421875 0 
z
M 9.421875 75.984375 
L 18.40625 75.984375 
L 18.40625 64.59375 
L 9.421875 64.59375 
z
" id="DejaVuSans-105"/>
       <path d="M 54.890625 33.015625 
L 54.890625 0 
L 45.90625 0 
L 45.90625 32.71875 
Q 45.90625 40.484375 42.875 44.328125 
Q 39.84375 48.1875 33.796875 48.1875 
Q 26.515625 48.1875 22.3125 43.546875 
Q 18.109375 38.921875 18.109375 30.90625 
L 18.109375 0 
L 9.078125 0 
L 9.078125 54.6875 
L 18.109375 54.6875 
L 18.109375 46.1875 
Q 21.34375 51.125 25.703125 53.5625 
Q 30.078125 56 35.796875 56 
Q 45.21875 56 50.046875 50.171875 
Q 54.890625 44.34375 54.890625 33.015625 
z
" id="DejaVuSans-110"/>
       <path d="M 18.3125 70.21875 
L 18.3125 54.6875 
L 36.8125 54.6875 
L 36.8125 47.703125 
L 18.3125 47.703125 
L 18.3125 18.015625 
Q 18.3125 11.328125 20.140625 9.421875 
Q 21.96875 7.515625 27.59375 7.515625 
L 36.8125 7.515625 
L 36.8125 0 
L 27.59375 0 
Q 17.1875 0 13.234375 3.875 
Q 9.28125 7.765625 9.28125 18.015625 
L 9.28125 47.703125 
L 2.6875 47.703125 
L 2.6875 54.6875 
L 9.28125 54.6875 
L 9.28125 70.21875 
z
" id="DejaVuSans-116"/>
       <path d="M 44.28125 53.078125 
L 44.28125 44.578125 
Q 40.484375 46.53125 36.375 47.5 
Q 32.28125 48.484375 27.875 48.484375 
Q 21.1875 48.484375 17.84375 46.4375 
Q 14.5 44.390625 14.5 40.28125 
Q 14.5 37.15625 16.890625 35.375 
Q 19.28125 33.59375 26.515625 31.984375 
L 29.59375 31.296875 
Q 39.15625 29.25 43.1875 25.515625 
Q 47.21875 21.78125 47.21875 15.09375 
Q 47.21875 7.46875 41.1875 3.015625 
Q 35.15625 -1.421875 24.609375 -1.421875 
Q 20.21875 -1.421875 15.453125 -0.5625 
Q 10.6875 0.296875 5.421875 2 
L 5.421875 11.28125 
Q 10.40625 8.6875 15.234375 7.390625 
Q 20.0625 6.109375 24.8125 6.109375 
Q 31.15625 6.109375 34.5625 8.28125 
Q 37.984375 10.453125 37.984375 14.40625 
Q 37.984375 18.0625 35.515625 20.015625 
Q 33.0625 21.96875 24.703125 23.78125 
L 21.578125 24.515625 
Q 13.234375 26.265625 9.515625 29.90625 
Q 5.8125 33.546875 5.8125 39.890625 
Q 5.8125 47.609375 11.28125 51.796875 
Q 16.75 56 26.8125 56 
Q 31.78125 56 36.171875 55.265625 
Q 40.578125 54.546875 44.28125 53.078125 
z
" id="DejaVuSans-115"/>
       <path d="M 31 75.875 
Q 24.46875 64.65625 21.28125 53.65625 
Q 18.109375 42.671875 18.109375 31.390625 
Q 18.109375 20.125 21.3125 9.0625 
Q 24.515625 -2 31 -13.1875 
L 23.1875 -13.1875 
Q 15.875 -1.703125 12.234375 9.375 
Q 8.59375 20.453125 8.59375 31.390625 
Q 8.59375 42.28125 12.203125 53.3125 
Q 15.828125 64.359375 23.1875 75.875 
z
" id="DejaVuSans-40"/>
       <path d="M 10.6875 12.40625 
L 21 12.40625 
L 21 0 
L 10.6875 0 
z
" id="DejaVuSans-46"/>
       <path d="M 8.5 21.578125 
L 8.5 54.6875 
L 17.484375 54.6875 
L 17.484375 21.921875 
Q 17.484375 14.15625 20.5 10.265625 
Q 23.53125 6.390625 29.59375 6.390625 
Q 36.859375 6.390625 41.078125 11.03125 
Q 45.3125 15.671875 45.3125 23.6875 
L 45.3125 54.6875 
L 54.296875 54.6875 
L 54.296875 0 
L 45.3125 0 
L 45.3125 8.40625 
Q 42.046875 3.421875 37.71875 1 
Q 33.40625 -1.421875 27.6875 -1.421875 
Q 18.265625 -1.421875 13.375 4.4375 
Q 8.5 10.296875 8.5 21.578125 
z
M 31.109375 56 
z
" id="DejaVuSans-117"/>
       <path d="M 8.015625 75.875 
L 15.828125 75.875 
Q 23.140625 64.359375 26.78125 53.3125 
Q 30.421875 42.28125 30.421875 31.390625 
Q 30.421875 20.453125 26.78125 9.375 
Q 23.140625 -1.703125 15.828125 -13.1875 
L 8.015625 -13.1875 
Q 14.5 -2 17.703125 9.0625 
Q 20.90625 20.125 20.90625 31.390625 
Q 20.90625 42.671875 17.703125 53.65625 
Q 14.5 64.65625 8.015625 75.875 
z
" id="DejaVuSans-41"/>
      </defs>
      <use xlink:href="#DejaVuSans-83"/>
      <use x="63.476562" xlink:href="#DejaVuSans-97"/>
      <use x="124.755859" xlink:href="#DejaVuSans-109"/>
      <use x="222.167969" xlink:href="#DejaVuSans-112"/>
      <use x="285.644531" xlink:href="#DejaVuSans-108"/>
      <use x="313.427734" xlink:href="#DejaVuSans-101"/>
      <use x="374.951172" xlink:href="#DejaVuSans-32"/>
      <use x="406.738281" xlink:href="#DejaVuSans-80"/>
      <use x="463.416016" xlink:href="#DejaVuSans-111"/>
      <use x="524.597656" xlink:href="#DejaVuSans-105"/>
      <use x="552.380859" xlink:href="#DejaVuSans-110"/>
      <use x="615.759766" xlink:href="#DejaVuSans-116"/>
      <use x="654.96875" xlink:href="#DejaVuSans-115"/>
      <use x="707.068359" xlink:href="#DejaVuSans-32"/>
      <use x="738.855469" xlink:href="#DejaVuSans-40"/>
      <use x="777.869141" xlink:href="#DejaVuSans-110"/>
      <use x="841.248047" xlink:href="#DejaVuSans-46"/>
      <use x="873.035156" xlink:href="#DejaVuSans-117"/>
      <use x="936.414062" xlink:href="#DejaVuSans-46"/>
      <use x="968.201172" xlink:href="#DejaVuSans-41"/>
     </g>
    </g>
   </g>
   <g id="matplotlib.axis_2">
    <g id="ytick_1">
     <g id="line2d_10">
      <defs>
       <path d="M 0 0 
L -3.5 0 
" id="m148d5c0f97" style="stroke:#000000;stroke-width:0.8;"/>
      </defs>
      <g>
       <use style="stroke:#000000;stroke-width:0.8;" x="59.959375" xlink:href="#m148d5c0f97" y="275.232475"/>
      </g>
     </g>
     <g id="text_11">
      <!-- 0 -->
      <g transform="translate(40.234375 282.830913)scale(0.2 -0.2)">
       <use xlink:href="#DejaVuSans-48"/>
      </g>
     </g>
    </g>
    <g id="ytick_2">
     <g id="line2d_11">
      <g>
       <use style="stroke:#000000;stroke-width:0.8;" x="59.959375" xlink:href="#m148d5c0f97" y="210.646337"/>
      </g>
     </g>
     <g id="text_12">
      <!-- 2 -->
      <g transform="translate(40.234375 218.244774)scale(0.2 -0.2)">
       <use xlink:href="#DejaVuSans-50"/>
      </g>
     </g>
    </g>
    <g id="ytick_3">
     <g id="line2d_12">
      <g>
       <use style="stroke:#000000;stroke-width:0.8;" x="59.959375" xlink:href="#m148d5c0f97" y="146.060198"/>
      </g>
     </g>
     <g id="text_13">
      <!-- 4 -->
      <g transform="translate(40.234375 153.658636)scale(0.2 -0.2)">
       <defs>
        <path d="M 37.796875 64.3125 
L 12.890625 25.390625 
L 37.796875 25.390625 
z
M 35.203125 72.90625 
L 47.609375 72.90625 
L 47.609375 25.390625 
L 58.015625 25.390625 
L 58.015625 17.1875 
L 47.609375 17.1875 
L 47.609375 0 
L 37.796875 0 
L 37.796875 17.1875 
L 4.890625 17.1875 
L 4.890625 26.703125 
z
" id="DejaVuSans-52"/>
       </defs>
       <use xlink:href="#DejaVuSans-52"/>
      </g>
     </g>
    </g>
    <g id="ytick_4">
     <g id="line2d_13">
      <g>
       <use style="stroke:#000000;stroke-width:0.8;" x="59.959375" xlink:href="#m148d5c0f97" y="81.474059"/>
      </g>
     </g>
     <g id="text_14">
      <!-- 6 -->
      <g transform="translate(40.234375 89.072497)scale(0.2 -0.2)">
       <defs>
        <path d="M 33.015625 40.375 
Q 26.375 40.375 22.484375 35.828125 
Q 18.609375 31.296875 18.609375 23.390625 
Q 18.609375 15.53125 22.484375 10.953125 
Q 26.375 6.390625 33.015625 6.390625 
Q 39.65625 6.390625 43.53125 10.953125 
Q 47.40625 15.53125 47.40625 23.390625 
Q 47.40625 31.296875 43.53125 35.828125 
Q 39.65625 40.375 33.015625 40.375 
z
M 52.59375 71.296875 
L 52.59375 62.3125 
Q 48.875 64.0625 45.09375 64.984375 
Q 41.3125 65.921875 37.59375 65.921875 
Q 27.828125 65.921875 22.671875 59.328125 
Q 17.53125 52.734375 16.796875 39.40625 
Q 19.671875 43.65625 24.015625 45.921875 
Q 28.375 48.1875 33.59375 48.1875 
Q 44.578125 48.1875 50.953125 41.515625 
Q 57.328125 34.859375 57.328125 23.390625 
Q 57.328125 12.15625 50.6875 5.359375 
Q 44.046875 -1.421875 33.015625 -1.421875 
Q 20.359375 -1.421875 13.671875 8.265625 
Q 6.984375 17.96875 6.984375 36.375 
Q 6.984375 53.65625 15.1875 63.9375 
Q 23.390625 74.21875 37.203125 74.21875 
Q 40.921875 74.21875 44.703125 73.484375 
Q 48.484375 72.75 52.59375 71.296875 
z
" id="DejaVuSans-54"/>
       </defs>
       <use xlink:href="#DejaVuSans-54"/>
      </g>
     </g>
    </g>
    <g id="ytick_5">
     <g id="line2d_14">
      <g>
       <use style="stroke:#000000;stroke-width:0.8;" x="59.959375" xlink:href="#m148d5c0f97" y="16.887921"/>
      </g>
     </g>
     <g id="text_15">
      <!-- 8 -->
      <g transform="translate(40.234375 24.486358)scale(0.2 -0.2)">
       <defs>
        <path d="M 31.78125 34.625 
Q 24.75 34.625 20.71875 30.859375 
Q 16.703125 27.09375 16.703125 20.515625 
Q 16.703125 13.921875 20.71875 10.15625 
Q 24.75 6.390625 31.78125 6.390625 
Q 38.8125 6.390625 42.859375 10.171875 
Q 46.921875 13.96875 46.921875 20.515625 
Q 46.921875 27.09375 42.890625 30.859375 
Q 38.875 34.625 31.78125 34.625 
z
M 21.921875 38.8125 
Q 15.578125 40.375 12.03125 44.71875 
Q 8.5 49.078125 8.5 55.328125 
Q 8.5 64.0625 14.71875 69.140625 
Q 20.953125 74.21875 31.78125 74.21875 
Q 42.671875 74.21875 48.875 69.140625 
Q 55.078125 64.0625 55.078125 55.328125 
Q 55.078125 49.078125 51.53125 44.71875 
Q 48 40.375 41.703125 38.8125 
Q 48.828125 37.15625 52.796875 32.3125 
Q 56.78125 27.484375 56.78125 20.515625 
Q 56.78125 9.90625 50.3125 4.234375 
Q 43.84375 -1.421875 31.78125 -1.421875 
Q 19.734375 -1.421875 13.25 4.234375 
Q 6.78125 9.90625 6.78125 20.515625 
Q 6.78125 27.484375 10.78125 32.3125 
Q 14.796875 37.15625 21.921875 38.8125 
z
M 18.3125 54.390625 
Q 18.3125 48.734375 21.84375 45.5625 
Q 25.390625 42.390625 31.78125 42.390625 
Q 38.140625 42.390625 41.71875 45.5625 
Q 45.3125 48.734375 45.3125 54.390625 
Q 45.3125 60.0625 41.71875 63.234375 
Q 38.140625 66.40625 31.78125 66.40625 
Q 25.390625 66.40625 21.84375 63.234375 
Q 18.3125 60.0625 18.3125 54.390625 
z
" id="DejaVuSans-56"/>
       </defs>
       <use xlink:href="#DejaVuSans-56"/>
      </g>
     </g>
    </g>
    <g id="text_16">
     <!-- Weight (n.u.) -->
     <g transform="translate(29.995313 267.555)rotate(-90)scale(0.3 -0.3)">
      <defs>
       <path d="M 3.328125 72.90625 
L 13.28125 72.90625 
L 28.609375 11.28125 
L 43.890625 72.90625 
L 54.984375 72.90625 
L 70.3125 11.28125 
L 85.59375 72.90625 
L 95.609375 72.90625 
L 77.296875 0 
L 64.890625 0 
L 49.515625 63.28125 
L 33.984375 0 
L 21.578125 0 
z
" id="DejaVuSans-87"/>
       <path d="M 45.40625 27.984375 
Q 45.40625 37.75 41.375 43.109375 
Q 37.359375 48.484375 30.078125 48.484375 
Q 22.859375 48.484375 18.828125 43.109375 
Q 14.796875 37.75 14.796875 27.984375 
Q 14.796875 18.265625 18.828125 12.890625 
Q 22.859375 7.515625 30.078125 7.515625 
Q 37.359375 7.515625 41.375 12.890625 
Q 45.40625 18.265625 45.40625 27.984375 
z
M 54.390625 6.78125 
Q 54.390625 -7.171875 48.1875 -13.984375 
Q 42 -20.796875 29.203125 -20.796875 
Q 24.46875 -20.796875 20.265625 -20.09375 
Q 16.0625 -19.390625 12.109375 -17.921875 
L 12.109375 -9.1875 
Q 16.0625 -11.328125 19.921875 -12.34375 
Q 23.78125 -13.375 27.78125 -13.375 
Q 36.625 -13.375 41.015625 -8.765625 
Q 45.40625 -4.15625 45.40625 5.171875 
L 45.40625 9.625 
Q 42.625 4.78125 38.28125 2.390625 
Q 33.9375 0 27.875 0 
Q 17.828125 0 11.671875 7.65625 
Q 5.515625 15.328125 5.515625 27.984375 
Q 5.515625 40.671875 11.671875 48.328125 
Q 17.828125 56 27.875 56 
Q 33.9375 56 38.28125 53.609375 
Q 42.625 51.21875 45.40625 46.390625 
L 45.40625 54.6875 
L 54.390625 54.6875 
z
" id="DejaVuSans-103"/>
       <path d="M 54.890625 33.015625 
L 54.890625 0 
L 45.90625 0 
L 45.90625 32.71875 
Q 45.90625 40.484375 42.875 44.328125 
Q 39.84375 48.1875 33.796875 48.1875 
Q 26.515625 48.1875 22.3125 43.546875 
Q 18.109375 38.921875 18.109375 30.90625 
L 18.109375 0 
L 9.078125 0 
L 9.078125 75.984375 
L 18.109375 75.984375 
L 18.109375 46.1875 
Q 21.34375 51.125 25.703125 53.5625 
Q 30.078125 56 35.796875 56 
Q 45.21875 56 50.046875 50.171875 
Q 54.890625 44.34375 54.890625 33.015625 
z
" id="DejaVuSans-104"/>
      </defs>
      <use xlink:href="#DejaVuSans-87"/>
      <use x="93.001953" xlink:href="#DejaVuSans-101"/>
      <use x="154.525391" xlink:href="#DejaVuSans-105"/>
      <use x="182.308594" xlink:href="#DejaVuSans-103"/>
      <use x="245.785156" xlink:href="#DejaVuSans-104"/>
      <use x="309.164062" xlink:href="#DejaVuSans-116"/>
      <use x="348.373047" xlink:href="#DejaVuSans-32"/>
      <use x="380.160156" xlink:href="#DejaVuSans-40"/>
      <use x="419.173828" xlink:href="#DejaVuSans-110"/>
      <use x="482.552734" xlink:href="#DejaVuSans-46"/>
      <use x="514.339844" xlink:href="#DejaVuSans-117"/>
      <use x="577.71875" xlink:href="#DejaVuSans-46"/>
      <use x="609.505859" xlink:href="#DejaVuSans-41"/>
     </g>
    </g>
   </g>
   <g id="line2d_15">
    <path clip-path="url(#p578e01f9d6)" d="M 95.468466 242.939406 
L 267.418441 242.829234 
L 280.208108 242.586423 
L 288.734553 242.214225 
L 295.484656 241.697371 
L 300.813684 241.077437 
L 305.432175 240.332109 
L 309.695398 239.423221 
L 313.603352 238.359702 
L 317.156037 237.163671 
L 320.353454 235.869735 
L 323.550871 234.340506 
L 326.748288 232.546468 
L 329.590436 230.705008 
L 332.432584 228.609102 
L 335.274733 226.237857 
L 338.116881 223.571323 
L 340.959029 220.591078 
L 343.801178 217.280865 
L 346.643326 213.627274 
L 349.485474 209.62045 
L 352.327623 205.254807 
L 355.52504 199.91401 
L 358.722457 194.126171 
L 362.275142 187.192942 
L 365.827827 179.770386 
L 369.735781 171.110244 
L 374.709541 159.498865 
L 382.880717 139.69862 
L 389.275551 124.443728 
L 393.538774 114.855062 
L 396.736191 108.156477 
L 399.578339 102.655882 
L 402.420487 97.659024 
L 404.907367 93.754132 
L 407.038978 90.787944 
L 409.17059 88.198602 
L 410.946932 86.343984 
L 412.723275 84.776353 
L 414.499618 83.504728 
L 416.275961 82.536472 
L 417.697035 81.984138 
L 419.118109 81.631663 
L 420.539183 81.480367 
L 420.894452 81.474059 
L 421.24972 49.187297 
L 422.670794 49.338594 
L 424.091869 49.691069 
L 425.512943 50.243403 
L 427.289285 51.211658 
L 429.065628 52.483283 
L 430.841971 54.050915 
L 432.618314 55.905533 
L 434.749925 58.494875 
L 436.881536 61.461062 
L 439.368416 65.365954 
L 441.855296 69.709195 
L 444.697444 75.150761 
L 447.894861 81.794196 
L 451.447546 89.695483 
L 456.066037 100.540838 
L 473.118928 141.225367 
L 477.38215 150.501747 
L 480.934835 157.734531 
L 484.487521 164.45977 
L 487.684938 170.050499 
L 490.882355 175.189575 
L 494.079772 179.873441 
L 496.92192 183.658553 
L 499.764068 187.096137 
L 502.606217 190.198353 
L 505.448365 192.980471 
L 508.290513 195.46018 
L 511.132662 197.656928 
L 513.97481 199.59132 
L 517.172227 201.480332 
L 520.369644 203.094502 
L 523.567061 204.463659 
L 527.119746 205.732456 
L 530.672432 206.771266 
L 534.580386 207.688996 
L 538.843608 208.467773 
L 543.817368 209.142703 
L 549.501664 209.68036 
L 556.251767 210.089822 
L 565.13348 210.38829 
L 577.923148 210.568029 
L 602.081409 210.640091 
L 772.61031 210.646337 
L 805.650284 210.646337 
L 805.650284 210.646337 
" style="fill:none;stroke:#ff7f0e;stroke-dasharray:12.95,5.6;stroke-dashoffset:0;stroke-width:3.5;"/>
   </g>
   <g id="line2d_16">
    <path clip-path="url(#p578e01f9d6)" d="M 95.468466 313.428469 
L 95.823734 312.072097 
L 96.179003 312.638586 
L 96.534272 312.298671 
L 97.600077 313.201895 
L 97.955346 312.865214 
L 98.310614 313.768384 
L 98.665883 313.768384 
L 99.021151 314.334927 
L 99.37642 313.768384 
L 99.731688 314.334927 
L 100.797494 314.334927 
L 101.152763 313.995012 
L 101.508031 314.334927 
L 101.8633 314.334927 
L 102.573837 313.768384 
L 102.929105 313.995012 
L 103.284374 313.768384 
L 103.639642 314.558267 
L 103.994911 313.768384 
L 104.350179 314.334927 
L 104.705448 314.558267 
L 105.060717 314.558267 
L 105.415985 314.334927 
L 105.771254 313.768384 
L 106.126522 314.334927 
L 106.481791 313.768384 
L 106.837059 313.995012 
L 107.192328 314.558267 
L 107.547596 313.768384 
L 107.902865 313.995012 
L 108.258133 313.768384 
L 108.613402 313.201895 
L 108.968671 313.768384 
L 109.323939 313.428469 
L 110.034476 314.558267 
L 110.745013 313.995012 
L 111.100282 314.334927 
L 111.45555 313.995012 
L 111.810819 314.334927 
L 112.166087 313.995012 
L 113.231893 313.995012 
L 113.94243 313.428469 
L 114.297699 313.995012 
L 114.652967 313.428469 
L 115.008236 313.428469 
L 115.363504 314.558267 
L 115.718773 314.334927 
L 116.074041 314.558267 
L 116.42931 314.334927 
L 116.784579 313.768384 
L 117.139847 314.334927 
L 117.495116 314.558267 
L 118.205653 314.558267 
L 118.560921 313.995012 
L 118.91619 313.768384 
L 119.271458 313.995012 
L 119.626727 313.768384 
L 119.981995 313.768384 
L 120.337264 313.995012 
L 120.692532 313.995012 
L 121.40307 313.428469 
L 121.758338 314.334927 
L 122.113607 313.768384 
L 122.468875 313.995012 
L 122.824144 314.558267 
L 123.179412 313.995012 
L 123.534681 313.768384 
L 124.600486 313.768384 
L 124.955755 313.428469 
L 125.311024 313.995012 
L 125.666292 313.768384 
L 126.021561 313.768384 
L 126.376829 313.995012 
L 126.732098 313.428469 
L 127.087366 313.995012 
L 127.442635 313.995012 
L 127.797903 313.428469 
L 128.153172 314.334927 
L 128.50844 314.334927 
L 128.863709 313.995012 
L 129.218978 314.334927 
L 129.929515 313.768384 
L 130.284783 312.638586 
L 130.640052 312.072097 
L 130.99532 310.942299 
L 131.350589 310.378989 
L 131.705857 309.472585 
L 132.061126 309.472585 
L 132.416394 308.342787 
L 133.126932 308.342787 
L 133.4822 308.682648 
L 133.837469 307.779478 
L 134.192737 308.909276 
L 134.548006 309.245957 
L 134.903274 308.909276 
L 135.613811 313.768384 
L 135.96908 313.428469 
L 136.324348 315.12481 
L 136.679617 314.334927 
L 137.034885 315.12481 
L 137.390154 313.995012 
L 137.745423 314.334927 
L 138.100691 315.12481 
L 138.45596 313.995012 
L 138.811228 314.334927 
L 139.521765 314.334927 
L 139.877034 314.898182 
L 140.942839 288.563153 
L 141.298108 285.513619 
L 141.653377 287.206727 
L 142.008645 293.98875 
L 142.719182 317.724322 
L 143.074451 321.113716 
L 143.429719 320.777035 
L 143.784988 318.514205 
L 144.140256 314.898182 
L 144.495525 314.334927 
L 144.850793 314.898182 
L 145.206062 313.768384 
L 145.561331 314.558267 
L 145.916599 314.334927 
L 146.271868 313.768384 
L 146.627136 314.558267 
L 146.982405 314.558267 
L 147.692942 313.428469 
L 148.04821 312.638586 
L 149.114016 313.201895 
L 149.469285 312.865214 
L 149.824553 313.201895 
L 150.179822 312.638586 
L 150.53509 312.298671 
L 150.890359 312.638586 
L 151.245627 312.072097 
L 151.600896 312.638586 
L 152.666701 311.508788 
L 153.02197 312.072097 
L 153.377238 311.508788 
L 153.732507 311.168873 
L 154.087776 311.168873 
L 154.443044 310.942299 
L 154.798313 310.039074 
L 155.153581 309.8125 
L 155.864118 310.378989 
L 156.219387 309.8125 
L 156.574655 309.8125 
L 156.929924 309.472585 
L 157.640461 308.116159 
L 157.99573 308.116159 
L 158.350998 307.55285 
L 159.061535 307.55285 
L 159.416804 306.986361 
L 159.772072 306.646446 
L 160.127341 304.953339 
L 160.482609 305.856563 
L 160.837878 305.516648 
L 161.193146 306.083137 
L 161.903684 304.953339 
L 162.258952 304.953339 
L 162.614221 305.856563 
L 162.969489 306.083137 
L 163.680026 306.083137 
L 164.035295 306.986361 
L 164.390563 307.55285 
L 164.745832 307.55285 
L 165.1011 308.116159 
L 165.456369 308.116159 
L 165.811637 309.245957 
L 166.522175 309.8125 
L 167.232712 312.298671 
L 167.58798 311.168873 
L 167.943249 311.735416 
L 168.298517 311.735416 
L 168.653786 312.072097 
L 169.009054 312.638586 
L 169.364323 313.768384 
L 169.719591 313.201895 
L 170.07486 313.428469 
L 170.430129 312.865214 
L 170.785397 313.201895 
L 171.140666 311.508788 
L 171.495934 313.201895 
L 171.851203 313.201895 
L 172.206471 312.865214 
L 172.56174 313.768384 
L 173.627545 312.865214 
L 173.982814 312.638586 
L 174.338083 312.638586 
L 174.693351 312.072097 
L 175.04862 312.865214 
L 175.403888 313.201895 
L 175.759157 312.638586 
L 176.469694 312.072097 
L 177.535499 312.072097 
L 178.246037 313.201895 
L 178.601305 312.638586 
L 178.956574 312.298671 
L 179.311842 311.735416 
L 179.667111 312.865214 
L 181.088185 312.072097 
L 181.443453 312.638586 
L 181.798722 311.735416 
L 182.15399 312.298671 
L 182.509259 312.072097 
L 183.575065 312.638586 
L 183.930333 312.638586 
L 184.285602 313.428469 
L 184.64087 312.298671 
L 184.996139 312.638586 
L 185.351407 312.298671 
L 185.706676 313.201895 
L 186.061944 312.638586 
L 186.417213 312.298671 
L 186.772482 312.865214 
L 187.12775 313.201895 
L 187.483019 312.298671 
L 187.838287 312.298671 
L 188.193556 311.508788 
L 188.548824 312.072097 
L 188.904093 312.298671 
L 189.259361 312.298671 
L 189.61463 312.638586 
L 189.969898 312.638586 
L 190.325167 312.298671 
L 190.680436 312.865214 
L 191.035704 312.298671 
L 191.390973 313.201895 
L 191.746241 312.072097 
L 192.10151 312.072097 
L 192.456778 311.735416 
L 192.812047 312.072097 
L 193.167315 312.638586 
L 193.877852 313.201895 
L 194.233121 312.638586 
L 194.58839 312.638586 
L 194.943658 313.201895 
L 195.298927 312.298671 
L 195.654195 312.072097 
L 196.364732 313.768384 
L 196.720001 312.072097 
L 197.075269 313.768384 
L 197.430538 312.638586 
L 197.785806 312.638586 
L 198.141075 312.072097 
L 198.496343 312.865214 
L 198.851612 312.865214 
L 199.917418 312.298671 
L 200.272686 312.865214 
L 200.627955 313.201895 
L 200.983223 312.865214 
L 201.338492 313.428469 
L 201.69376 313.201895 
L 202.049029 312.638586 
L 202.404297 312.298671 
L 202.759566 312.298671 
L 203.114835 312.638586 
L 203.470103 312.298671 
L 203.825372 312.638586 
L 204.18064 312.298671 
L 204.891177 312.298671 
L 205.246446 313.201895 
L 205.601714 311.735416 
L 205.956983 312.298671 
L 206.312251 312.298671 
L 206.66752 312.638586 
L 207.022789 313.428469 
L 207.378057 312.638586 
L 208.088594 312.072097 
L 209.509668 312.072097 
L 209.864937 312.638586 
L 210.220205 312.298671 
L 210.575474 312.865214 
L 210.930743 312.298671 
L 211.286011 312.865214 
L 211.64128 312.072097 
L 211.996548 312.072097 
L 212.351817 311.735416 
L 212.707085 312.072097 
L 213.062354 311.735416 
L 213.417622 312.638586 
L 214.128159 312.072097 
L 214.483428 312.298671 
L 214.838696 311.735416 
L 215.193965 311.508788 
L 215.549234 311.508788 
L 215.904502 312.072097 
L 216.259771 312.072097 
L 216.615039 310.602384 
L 216.970308 310.039074 
L 217.325576 309.245957 
L 217.680845 307.779478 
L 218.036113 307.212935 
L 218.391382 307.212935 
L 218.74665 306.423052 
L 219.101919 305.29002 
L 219.457188 305.856563 
L 219.812456 306.083137 
L 220.167725 306.083137 
L 220.522993 305.856563 
L 221.23353 308.342787 
L 221.588799 308.682648 
L 221.944067 311.735416 
L 222.654604 312.298671 
L 223.009873 311.508788 
L 223.365142 311.735416 
L 223.72041 312.638586 
L 224.075679 312.638586 
L 224.430947 311.168873 
L 224.786216 312.638586 
L 225.141484 313.201895 
L 225.496753 312.298671 
L 225.852021 313.428469 
L 226.20729 311.168873 
L 226.917827 297.041517 
L 227.628364 280.42465 
L 227.983633 278.731596 
L 228.69417 297.944687 
L 229.049438 312.072097 
L 229.404707 318.85412 
L 229.759975 318.85412 
L 230.115244 318.290865 
L 230.470512 312.865214 
L 230.825781 310.602384 
L 231.181049 311.168873 
L 231.536318 312.298671 
L 231.891587 311.508788 
L 232.246855 312.072097 
L 232.602124 312.298671 
L 232.957392 311.735416 
L 233.312661 310.942299 
L 233.667929 310.942299 
L 234.023198 311.735416 
L 234.378466 312.072097 
L 234.733735 310.378989 
L 235.089003 310.039074 
L 235.444272 310.942299 
L 235.799541 310.602384 
L 236.154809 310.039074 
L 236.865346 311.168873 
L 237.220615 310.039074 
L 237.575883 310.602384 
L 237.931152 309.472585 
L 238.28642 309.245957 
L 238.641689 310.039074 
L 238.996957 308.909276 
L 239.707495 308.909276 
L 240.062763 307.779478 
L 240.418032 307.779478 
L 240.7733 308.909276 
L 241.128569 307.779478 
L 241.839106 306.646446 
L 242.194374 307.779478 
L 242.549643 306.646446 
L 242.904911 306.646446 
L 243.26018 305.856563 
L 243.615448 305.856563 
L 243.970717 304.953339 
L 244.681254 304.953339 
L 245.036523 303.82354 
L 245.391791 303.82354 
L 245.74706 302.467168 
L 246.102328 303.257051 
L 246.457597 301.900625 
L 246.812865 301.337316 
L 247.168134 301.337316 
L 247.523402 299.641029 
L 247.878671 300.770827 
L 248.23394 300.770827 
L 248.589208 300.204284 
L 248.944477 300.997455 
L 249.299745 300.204284 
L 249.655014 301.56071 
L 250.010282 301.900625 
L 250.365551 301.56071 
L 251.076088 304.160222 
L 251.431356 304.38685 
L 251.786625 305.516648 
L 252.141894 305.856563 
L 252.497162 305.856563 
L 252.852431 307.55285 
L 253.207699 308.116159 
L 253.918236 310.942299 
L 254.273505 309.245957 
L 254.628773 308.342787 
L 254.984042 309.245957 
L 255.33931 310.602384 
L 255.694579 309.245957 
L 256.049848 312.298671 
L 256.405116 311.508788 
L 256.760385 309.8125 
L 257.115653 309.8125 
L 257.470922 310.378989 
L 257.82619 310.602384 
L 258.181459 311.508788 
L 258.536727 311.508788 
L 259.247264 310.378989 
L 259.602533 310.602384 
L 259.957801 310.039074 
L 260.31307 310.378989 
L 260.668339 311.168873 
L 261.023607 310.602384 
L 261.734144 311.168873 
L 262.089413 310.039074 
L 262.444681 309.472585 
L 262.79995 310.039074 
L 263.155218 309.8125 
L 263.510487 310.039074 
L 263.865755 310.942299 
L 264.221024 310.039074 
L 264.576293 310.378989 
L 264.931561 308.909276 
L 265.28683 309.245957 
L 265.642098 309.245957 
L 265.997367 309.472585 
L 266.707904 308.909276 
L 267.063172 309.472585 
L 267.418441 307.779478 
L 267.773709 309.8125 
L 268.128978 308.909276 
L 268.484247 309.8125 
L 268.839515 311.735416 
L 269.194784 310.602384 
L 269.550052 310.039074 
L 269.905321 309.245957 
L 270.260589 310.602384 
L 270.971126 310.039074 
L 271.326395 309.472585 
L 271.681663 309.8125 
L 272.036932 309.8125 
L 272.392201 311.168873 
L 272.747469 310.378989 
L 273.102738 308.909276 
L 273.458006 310.039074 
L 273.813275 310.378989 
L 274.523812 309.8125 
L 274.87908 309.8125 
L 275.589617 310.378989 
L 275.944886 309.8125 
L 276.300154 310.039074 
L 276.655423 310.039074 
L 277.36596 308.909276 
L 277.721229 310.039074 
L 278.076497 310.378989 
L 278.431766 309.472585 
L 278.787034 309.8125 
L 279.142303 310.378989 
L 279.85284 309.8125 
L 280.208108 309.8125 
L 280.563377 308.909276 
L 280.918646 309.8125 
L 281.273914 310.039074 
L 281.629183 309.8125 
L 281.984451 309.8125 
L 282.33972 308.682648 
L 282.694988 310.378989 
L 283.050257 310.039074 
L 283.405525 310.039074 
L 283.760794 309.8125 
L 284.116062 309.8125 
L 284.471331 310.039074 
L 284.8266 309.8125 
L 285.181868 309.245957 
L 285.537137 308.909276 
L 286.247674 309.472585 
L 286.602942 310.378989 
L 286.958211 309.472585 
L 287.313479 310.039074 
L 287.668748 308.682648 
L 288.024016 309.8125 
L 288.379285 309.472585 
L 288.734553 310.039074 
L 289.089822 309.8125 
L 289.445091 308.909276 
L 289.800359 308.682648 
L 290.155628 310.602384 
L 290.510896 308.342787 
L 290.866165 309.245957 
L 291.221433 309.472585 
L 291.576702 308.682648 
L 291.93197 309.472585 
L 292.287239 309.472585 
L 292.642507 308.116159 
L 292.997776 308.909276 
L 293.353045 309.245957 
L 293.708313 308.909276 
L 294.41885 308.909276 
L 294.774119 308.682648 
L 295.129387 307.55285 
L 295.484656 309.472585 
L 295.839924 308.342787 
L 296.195193 308.909276 
L 296.550461 308.682648 
L 296.90573 306.646446 
L 297.616267 308.909276 
L 298.326804 308.342787 
L 298.682073 308.682648 
L 299.037341 307.779478 
L 299.39261 307.55285 
L 299.747878 307.55285 
L 300.103147 307.212935 
L 300.458415 305.516648 
L 300.813684 305.29002 
L 301.168953 304.726765 
L 301.524221 304.953339 
L 301.87949 304.726765 
L 302.234758 302.690508 
L 302.590027 303.030423 
L 302.945295 302.467168 
L 303.300564 302.127253 
L 304.011101 305.516648 
L 304.366369 303.596966 
L 304.721638 306.646446 
L 305.432175 307.779478 
L 305.787444 308.116159 
L 306.142712 308.682648 
L 306.497981 308.682648 
L 306.853249 308.909276 
L 307.208518 308.342787 
L 307.563786 308.342787 
L 307.919055 309.245957 
L 308.274323 308.909276 
L 308.629592 310.039074 
L 308.98486 309.472585 
L 309.340129 308.342787 
L 310.050666 297.041517 
L 310.405935 285.737013 
L 310.761203 280.991193 
L 311.116472 282.687534 
L 311.47174 289.129642 
L 312.182277 315.12481 
L 312.537546 317.724322 
L 312.892814 316.594524 
L 313.248083 313.995012 
L 313.603352 310.039074 
L 313.95862 308.682648 
L 314.313889 308.682648 
L 314.669157 309.472585 
L 315.024426 308.682648 
L 315.379694 308.682648 
L 315.734963 308.342787 
L 316.090231 307.779478 
L 316.4455 308.682648 
L 316.800768 309.245957 
L 317.156037 307.212935 
L 317.511306 307.212935 
L 318.221843 306.646446 
L 318.577111 307.779478 
L 318.93238 306.986361 
L 319.287648 306.986361 
L 319.998185 306.423052 
L 320.353454 306.423052 
L 320.708722 306.646446 
L 321.063991 306.083137 
L 321.419259 306.646446 
L 321.774528 306.423052 
L 322.129797 305.29002 
L 322.485065 305.856563 
L 322.840334 304.953339 
L 323.195602 304.38685 
L 323.550871 306.083137 
L 323.906139 304.953339 
L 324.261408 304.38685 
L 324.616676 304.38685 
L 324.971945 303.596966 
L 325.327213 303.596966 
L 325.682482 304.38685 
L 326.037751 302.467168 
L 326.393019 303.257051 
L 327.103556 302.127253 
L 327.458825 302.127253 
L 327.814093 301.900625 
L 328.169362 301.337316 
L 328.879899 301.337316 
L 329.235167 300.770827 
L 329.590436 300.770827 
L 329.945705 299.641029 
L 330.300973 299.867603 
L 330.656242 299.301114 
L 331.01151 300.204284 
L 331.722047 300.770827 
L 332.077316 299.641029 
L 332.432584 300.997455 
L 332.787853 300.997455 
L 333.143121 300.430912 
L 333.49839 300.997455 
L 333.853659 300.997455 
L 334.208927 302.690508 
L 334.564196 303.030423 
L 334.919464 303.030423 
L 335.274733 304.38685 
L 335.630001 304.38685 
L 336.340538 306.646446 
L 336.695807 305.856563 
L 337.051075 307.55285 
L 337.406344 306.646446 
L 337.761612 307.212935 
L 338.116881 307.212935 
L 338.47215 307.779478 
L 338.827418 307.212935 
L 339.182687 307.779478 
L 339.537955 306.986361 
L 339.893224 307.779478 
L 340.248492 307.55285 
L 340.603761 307.779478 
L 340.959029 308.342787 
L 341.314298 309.245957 
L 341.669566 308.342787 
L 342.024835 307.779478 
L 342.380104 306.986361 
L 342.735372 307.55285 
L 343.445909 308.116159 
L 343.801178 307.779478 
L 344.511715 308.342787 
L 344.866983 307.55285 
L 345.222252 307.779478 
L 345.57752 308.682648 
L 345.932789 307.779478 
L 346.288058 307.779478 
L 346.998595 306.423052 
L 347.353863 307.55285 
L 347.709132 308.116159 
L 348.0644 308.116159 
L 348.419669 308.909276 
L 348.774937 307.55285 
L 349.130206 308.116159 
L 349.485474 307.779478 
L 349.840743 308.342787 
L 350.196012 308.116159 
L 350.55128 308.116159 
L 351.261817 307.55285 
L 351.617086 308.116159 
L 351.972354 307.779478 
L 352.327623 308.342787 
L 352.682891 308.116159 
L 353.03816 309.245957 
L 353.393428 308.116159 
L 353.748697 308.682648 
L 354.103965 308.682648 
L 354.459234 308.116159 
L 354.814503 308.909276 
L 355.169771 308.342787 
L 355.52504 308.682648 
L 355.880308 309.472585 
L 356.235577 309.8125 
L 356.590845 308.909276 
L 356.946114 308.342787 
L 357.301382 308.909276 
L 357.656651 308.909276 
L 358.011919 309.8125 
L 358.367188 309.245957 
L 359.432994 308.342787 
L 360.143531 309.472585 
L 360.498799 309.472585 
L 361.209336 308.116159 
L 361.564605 308.909276 
L 362.630411 308.909276 
L 362.985679 308.682648 
L 363.340948 309.245957 
L 364.051485 309.245957 
L 364.406753 308.909276 
L 364.762022 309.245957 
L 365.472559 308.682648 
L 365.827827 309.8125 
L 366.538364 309.245957 
L 366.893633 309.245957 
L 367.248902 309.8125 
L 367.60417 310.039074 
L 367.959439 309.472585 
L 368.314707 309.8125 
L 369.025244 308.682648 
L 369.380513 309.472585 
L 369.735781 309.245957 
L 370.09105 309.472585 
L 370.446318 310.378989 
L 370.801587 309.245957 
L 371.512124 309.8125 
L 371.867393 309.472585 
L 372.57793 308.342787 
L 372.933198 309.245957 
L 373.288467 308.909276 
L 373.643735 308.909276 
L 373.999004 309.8125 
L 374.354272 309.8125 
L 374.709541 308.909276 
L 375.06481 309.8125 
L 375.420078 309.472585 
L 375.775347 308.909276 
L 376.130615 309.472585 
L 376.485884 309.8125 
L 376.841152 309.245957 
L 377.551689 309.245957 
L 377.906958 310.039074 
L 378.262226 308.909276 
L 378.617495 308.909276 
L 378.972764 310.039074 
L 379.683301 308.909276 
L 380.038569 309.245957 
L 380.393838 309.8125 
L 380.749106 309.472585 
L 381.104375 309.472585 
L 381.459643 308.909276 
L 381.814912 308.116159 
L 382.17018 306.423052 
L 382.525449 306.423052 
L 382.880717 305.516648 
L 383.235986 305.516648 
L 383.591255 304.160222 
L 383.946523 304.160222 
L 384.65706 305.516648 
L 385.012329 305.516648 
L 385.367597 304.953339 
L 385.722866 305.856563 
L 386.078134 306.423052 
L 386.433403 307.779478 
L 386.788671 310.039074 
L 387.14394 309.472585 
L 387.499209 310.942299 
L 388.209746 310.942299 
L 388.565014 310.378989 
L 388.920283 310.039074 
L 389.275551 310.602384 
L 389.63082 309.8125 
L 389.986088 311.508788 
L 390.341357 310.942299 
L 390.696625 311.735416 
L 391.051894 309.472585 
L 391.762431 295.118548 
L 392.1177 287.433301 
L 392.472968 284.380587 
L 392.828237 286.303502 
L 393.183505 291.955781 
L 393.894042 313.995012 
L 394.249311 317.157833 
L 394.604579 315.464725 
L 394.959848 314.898182 
L 395.315117 311.168873 
L 395.670385 310.039074 
L 396.380922 310.602384 
L 396.736191 310.602384 
L 397.091459 311.168873 
L 397.446728 310.039074 
L 397.801996 310.602384 
L 398.157265 310.039074 
L 398.512533 310.602384 
L 398.867802 309.8125 
L 399.22307 310.378989 
L 399.578339 310.039074 
L 399.933608 310.602384 
L 400.999413 309.8125 
L 401.354682 309.472585 
L 402.065219 310.039074 
L 402.420487 309.8125 
L 402.775756 308.682648 
L 403.131024 309.8125 
L 403.486293 308.909276 
L 403.841562 309.245957 
L 404.19683 308.909276 
L 404.552099 309.472585 
L 404.907367 308.682648 
L 405.262636 308.909276 
L 405.617904 308.682648 
L 405.973173 308.682648 
L 406.328441 308.116159 
L 406.68371 307.779478 
L 407.038978 308.342787 
L 407.394247 307.779478 
L 407.749516 307.55285 
L 408.460053 307.55285 
L 408.815321 305.856563 
L 409.17059 306.986361 
L 409.525858 306.083137 
L 410.591664 305.29002 
L 410.946932 304.726765 
L 411.302201 304.953339 
L 411.65747 304.726765 
L 412.012738 304.953339 
L 412.368007 304.38685 
L 412.723275 304.726765 
L 413.078544 304.38685 
L 413.433812 304.953339 
L 413.789081 304.726765 
L 414.144349 306.083137 
L 414.499618 306.423052 
L 414.854886 304.953339 
L 415.210155 305.29002 
L 415.565423 304.953339 
L 415.920692 304.953339 
L 416.275961 306.646446 
L 416.986498 308.682648 
L 417.697035 309.245957 
L 418.052303 310.039074 
L 418.407572 309.8125 
L 418.76284 310.602384 
L 419.118109 310.039074 
L 419.473377 311.168873 
L 420.183915 311.735416 
L 420.539183 311.508788 
L 420.894452 311.508788 
L 420.894452 311.508788 
" style="fill:none;stroke:#808080;stroke-linecap:square;stroke-opacity:0.5;stroke-width:1.5;"/>
   </g>
   <g id="line2d_17">
    <path clip-path="url(#p578e01f9d6)" d="M 421.24972 312.298671 
L 421.604989 312.298671 
L 421.960257 311.168873 
L 422.315526 312.072097 
L 422.670794 311.735416 
L 423.026063 311.168873 
L 423.381331 311.735416 
L 423.7366 311.735416 
L 424.091869 312.298671 
L 424.447137 312.638586 
L 424.802406 312.638586 
L 425.512943 311.508788 
L 426.22348 311.508788 
L 426.578748 312.072097 
L 427.289285 312.072097 
L 427.644554 311.508788 
L 427.999822 311.735416 
L 428.355091 310.378989 
L 428.71036 307.779478 
L 429.065628 302.467168 
L 430.131434 293.08558 
L 430.486702 294.778687 
L 431.552508 325.859537 
L 431.907776 325.859537 
L 432.263045 323.036686 
L 432.618314 325.859537 
L 432.973582 325.296282 
L 433.328851 321.113716 
L 433.684119 313.995012 
L 434.039388 310.378989 
L 434.394656 310.378989 
L 434.749925 308.909276 
L 435.105193 308.909276 
L 435.81573 312.298671 
L 436.526268 310.942299 
L 436.881536 311.168873 
L 437.236805 309.8125 
L 437.592073 310.942299 
L 437.947342 310.039074 
L 438.30261 309.8125 
L 438.657879 308.909276 
L 439.013147 309.472585 
L 439.368416 308.342787 
L 439.723684 308.909276 
L 440.078953 308.342787 
L 440.434222 309.472585 
L 440.78949 309.245957 
L 441.144759 308.116159 
L 441.500027 307.779478 
L 441.855296 308.116159 
L 442.210564 307.212935 
L 443.27637 308.116159 
L 443.631638 306.646446 
L 443.986907 306.646446 
L 444.697444 306.083137 
L 445.052713 305.516648 
L 445.407981 305.856563 
L 445.76325 305.856563 
L 446.118518 304.38685 
L 446.473787 304.38685 
L 446.829055 303.82354 
L 447.184324 302.127253 
L 447.539592 302.690508 
L 448.605398 299.641029 
L 448.960667 299.074486 
L 449.315935 298.171315 
L 449.671204 299.074486 
L 450.026472 300.770827 
L 450.381741 300.997455 
L 450.737009 300.430912 
L 451.092278 301.56071 
L 451.447546 301.337316 
L 451.802815 301.900625 
L 452.513352 304.38685 
L 452.868621 305.856563 
L 453.223889 305.856563 
L 453.579158 306.423052 
L 455.3555 310.378989 
L 455.710769 310.602384 
L 456.066037 311.168873 
L 456.421306 310.942299 
L 456.776575 310.378989 
L 457.487112 311.508788 
L 457.84238 311.735416 
L 458.197649 310.942299 
L 458.552917 311.508788 
L 458.908186 312.638586 
L 459.263454 311.508788 
L 459.618723 311.168873 
L 459.973991 312.638586 
L 460.32926 310.942299 
L 460.684528 311.508788 
L 461.039797 311.735416 
L 461.395066 311.735416 
L 461.750334 312.298671 
L 462.105603 311.168873 
L 462.460871 310.602384 
L 462.81614 310.602384 
L 463.171408 309.472585 
L 463.526677 309.8125 
L 463.881945 310.942299 
L 464.237214 312.865214 
L 464.592482 313.201895 
L 464.947751 308.342787 
L 465.30302 300.770827 
L 465.658288 288.903068 
L 466.013557 280.991193 
L 466.368825 280.991193 
L 466.724094 288.563153 
L 467.434631 317.95095 
L 467.789899 319.420663 
L 468.145168 319.080748 
L 468.500436 316.027981 
L 468.855705 311.735416 
L 469.210974 310.602384 
L 469.566242 311.508788 
L 469.921511 311.508788 
L 470.276779 310.942299 
L 470.632048 312.298671 
L 470.987316 311.508788 
L 471.342585 311.735416 
L 471.697853 311.508788 
L 472.053122 312.298671 
L 472.40839 311.735416 
L 472.763659 312.072097 
L 473.118928 310.942299 
L 473.474196 312.072097 
L 473.829465 312.072097 
L 474.184733 311.508788 
L 474.540002 312.298671 
L 474.89527 311.735416 
L 475.250539 311.508788 
L 475.605807 311.508788 
L 475.961076 312.298671 
L 476.316344 312.638586 
L 476.671613 312.072097 
L 477.026881 310.602384 
L 477.737419 310.602384 
L 478.092687 309.472585 
L 478.803224 311.508788 
L 479.158493 311.508788 
L 479.513761 311.168873 
L 479.86903 311.508788 
L 480.224298 312.072097 
L 480.579567 310.039074 
L 480.934835 310.378989 
L 481.645373 307.779478 
L 482.000641 307.779478 
L 482.35591 308.342787 
L 482.711178 307.55285 
L 483.066447 307.55285 
L 483.421715 306.986361 
L 483.776984 306.646446 
L 484.132252 306.083137 
L 484.487521 305.29002 
L 484.842789 306.986361 
L 485.198058 306.646446 
L 485.553327 306.986361 
L 485.908595 306.646446 
L 486.263864 307.212935 
L 486.619132 307.55285 
L 486.974401 307.212935 
L 487.329669 308.116159 
L 487.684938 308.116159 
L 488.040206 309.8125 
L 488.395475 309.472585 
L 488.750743 310.378989 
L 489.46128 310.942299 
L 489.816549 312.865214 
L 490.171818 312.298671 
L 490.527086 311.508788 
L 490.882355 311.735416 
L 491.237623 311.508788 
L 491.592892 311.735416 
L 491.94816 312.298671 
L 492.303429 313.428469 
L 492.658697 313.768384 
L 493.013966 314.898182 
L 493.369234 315.464725 
L 493.724503 314.334927 
L 494.079772 314.898182 
L 494.43504 314.898182 
L 495.145577 312.298671 
L 495.500846 314.334927 
L 495.856114 314.334927 
L 496.211383 312.638586 
L 496.566651 306.083137 
L 497.277188 282.347619 
L 497.632457 276.468766 
L 497.987726 279.861394 
L 499.053531 316.027981 
L 499.4088 320.210546 
L 499.764068 321.906887 
L 500.119337 321.906887 
L 500.474605 318.514205 
L 500.829874 313.201895 
L 501.185142 312.638586 
L 501.540411 313.428469 
L 501.89568 312.638586 
L 502.250948 313.995012 
L 502.961485 313.995012 
L 503.316754 314.334927 
L 503.672022 313.201895 
L 504.027291 311.508788 
L 504.382559 311.508788 
L 504.737828 311.735416 
L 505.093096 313.201895 
L 505.448365 313.201895 
L 505.803633 312.298671 
L 506.158902 312.865214 
L 506.514171 313.201895 
L 506.869439 312.638586 
L 507.224708 311.508788 
L 507.579976 312.638586 
L 507.935245 312.072097 
L 508.290513 311.735416 
L 508.645782 310.942299 
L 509.00105 311.735416 
L 509.356319 308.909276 
L 509.711587 309.245957 
L 510.066856 309.245957 
L 510.422125 308.342787 
L 510.777393 308.682648 
L 511.132662 308.342787 
L 511.48793 308.682648 
L 511.843199 307.55285 
L 512.198467 307.779478 
L 512.553736 307.779478 
L 512.909004 305.516648 
L 513.264273 305.516648 
L 513.619541 305.856563 
L 514.330079 307.212935 
L 514.685347 306.083137 
L 515.040616 306.083137 
L 515.395884 307.212935 
L 515.751153 306.423052 
L 516.816958 306.986361 
L 517.172227 306.986361 
L 517.527495 307.55285 
L 517.882764 308.682648 
L 518.238033 308.342787 
L 518.593301 310.039074 
L 519.303838 312.072097 
L 519.659107 311.168873 
L 520.014375 311.508788 
L 520.369644 312.865214 
L 520.724912 312.298671 
L 521.080181 313.428469 
L 521.435449 313.768384 
L 521.790718 313.768384 
L 522.145986 313.995012 
L 522.501255 313.768384 
L 522.856524 313.768384 
L 523.211792 312.638586 
L 523.567061 312.638586 
L 523.922329 312.072097 
L 524.277598 312.072097 
L 524.632866 310.602384 
L 524.988135 311.508788 
L 526.409209 313.768384 
L 526.764478 312.298671 
L 527.119746 311.508788 
L 527.475015 312.638586 
L 527.830283 313.201895 
L 528.185552 313.201895 
L 528.54082 311.735416 
L 528.896089 313.995012 
L 529.251357 314.898182 
L 529.606626 314.558267 
L 529.961894 313.995012 
L 530.317163 314.558267 
L 530.672432 313.995012 
L 531.0277 314.334927 
L 531.382969 315.464725 
L 531.738237 315.12481 
L 532.093506 315.464725 
L 532.448774 316.254609 
L 533.159311 316.254609 
L 533.51458 316.027981 
L 533.869848 315.464725 
L 534.225117 317.724322 
L 534.580386 314.334927 
L 534.935654 313.201895 
L 535.290923 307.212935 
L 536.00146 286.303502 
L 536.356728 282.687534 
L 536.711997 285.173704 
L 537.067265 292.519037 
L 537.777802 317.384407 
L 538.133071 320.210546 
L 539.198877 310.378989 
L 539.554145 309.8125 
L 539.909414 312.072097 
L 540.264682 311.508788 
L 540.619951 311.168873 
L 540.975219 310.039074 
L 541.330488 310.039074 
L 541.685756 310.378989 
L 542.041025 308.909276 
L 542.396293 309.8125 
L 542.751562 311.508788 
L 543.106831 310.378989 
L 543.462099 310.942299 
L 543.817368 310.378989 
L 544.172636 310.942299 
L 544.527905 312.865214 
L 544.883173 312.298671 
L 545.238442 313.428469 
L 545.59371 312.072097 
L 545.948979 309.472585 
L 546.304247 311.168873 
L 546.659516 313.428469 
L 547.014785 310.378989 
L 547.370053 310.942299 
L 547.725322 310.942299 
L 548.08059 311.508788 
L 548.435859 310.942299 
L 548.791127 310.942299 
L 549.146396 310.602384 
L 549.501664 309.8125 
L 549.856933 310.039074 
L 550.56747 308.909276 
L 550.922738 307.55285 
L 551.278007 307.779478 
L 551.633276 308.342787 
L 551.988544 309.245957 
L 552.343813 307.55285 
L 552.699081 305.29002 
L 553.05435 305.856563 
L 553.409618 306.083137 
L 553.764887 306.986361 
L 554.475424 306.423052 
L 554.830692 303.030423 
L 555.185961 304.953339 
L 555.54123 305.516648 
L 555.896498 307.212935 
L 556.251767 306.423052 
L 556.607035 302.690508 
L 556.962304 303.82354 
L 557.317572 304.38685 
L 557.672841 306.646446 
L 558.028109 307.55285 
L 558.383378 308.116159 
L 558.738646 309.8125 
L 559.093915 310.378989 
L 559.449184 310.039074 
L 559.804452 310.602384 
L 560.159721 310.942299 
L 560.514989 312.865214 
L 560.870258 312.072097 
L 561.225526 312.298671 
L 561.580795 312.298671 
L 561.936063 314.558267 
L 562.291332 313.768384 
L 562.6466 313.768384 
L 563.001869 313.201895 
L 563.357138 313.768384 
L 563.712406 312.865214 
L 564.067675 313.201895 
L 564.778212 313.201895 
L 565.13348 311.735416 
L 565.488749 311.735416 
L 565.844017 312.298671 
L 566.199286 311.168873 
L 566.554554 311.168873 
L 566.909823 311.735416 
L 567.265091 311.508788 
L 567.62036 312.072097 
L 567.975629 311.735416 
L 568.330897 310.942299 
L 568.686166 310.602384 
L 569.041434 311.735416 
L 570.10724 311.735416 
L 570.462508 311.168873 
L 570.817777 312.298671 
L 571.173045 312.298671 
L 571.528314 313.201895 
L 571.883583 312.298671 
L 572.238851 313.768384 
L 572.59412 313.428469 
L 572.949388 313.768384 
L 573.659925 310.942299 
L 574.370462 292.519037 
L 574.725731 286.076928 
L 575.080999 285.737013 
L 575.436268 290.599355 
L 575.791537 299.867603 
L 576.146805 314.898182 
L 576.502074 322.810058 
L 576.857342 322.470143 
L 577.567879 316.254609 
L 577.923148 312.638586 
L 578.278416 312.072097 
L 578.633685 312.638586 
L 578.988953 312.865214 
L 579.344222 312.865214 
L 579.699491 312.072097 
L 580.054759 312.865214 
L 580.410028 311.168873 
L 580.765296 311.508788 
L 581.120565 309.472585 
L 581.831102 310.039074 
L 582.18637 310.039074 
L 582.541639 309.245957 
L 582.896907 309.8125 
L 583.252176 311.168873 
L 583.607444 310.378989 
L 583.962713 310.602384 
L 584.317982 309.472585 
L 584.67325 310.602384 
L 585.028519 309.8125 
L 585.383787 309.472585 
L 585.739056 309.472585 
L 586.094324 309.245957 
L 586.449593 310.039074 
L 587.16013 308.682648 
L 587.515398 308.682648 
L 587.870667 309.8125 
L 588.225936 309.245957 
L 588.581204 309.472585 
L 588.936473 308.682648 
L 589.291741 310.039074 
L 589.64701 308.909276 
L 590.002278 309.8125 
L 590.357547 309.245957 
L 590.712815 308.342787 
L 591.068084 308.909276 
L 591.423352 309.245957 
L 592.489158 307.55285 
L 592.844427 308.116159 
L 593.199695 307.55285 
L 593.554964 307.779478 
L 593.910232 306.646446 
L 594.265501 306.646446 
L 594.620769 307.779478 
L 594.976038 308.116159 
L 595.331306 307.779478 
L 595.686575 308.342787 
L 596.041844 307.779478 
L 596.397112 307.55285 
L 596.752381 306.423052 
L 597.107649 306.423052 
L 597.462918 306.083137 
L 597.818186 306.083137 
L 598.173455 307.212935 
L 598.528723 308.909276 
L 598.883992 310.039074 
L 599.23926 310.039074 
L 599.594529 310.378989 
L 599.949797 311.168873 
L 600.305066 310.602384 
L 600.660335 310.942299 
L 601.015603 309.472585 
L 601.370872 310.378989 
L 602.081409 311.508788 
L 602.436677 312.865214 
L 602.791946 312.865214 
L 603.502483 311.735416 
L 603.857751 313.201895 
L 604.568289 313.201895 
L 604.923557 312.298671 
L 605.278826 312.638586 
L 605.634094 313.201895 
L 605.989363 312.298671 
L 606.344631 312.298671 
L 606.6999 312.638586 
L 607.055168 312.072097 
L 607.410437 312.298671 
L 607.765705 312.298671 
L 608.831511 313.201895 
L 609.18678 312.865214 
L 609.542048 312.072097 
L 609.897317 312.072097 
L 610.252585 312.298671 
L 610.607854 310.942299 
L 610.963122 311.735416 
L 611.318391 311.735416 
L 611.673659 310.942299 
L 612.028928 309.472585 
L 612.384197 309.245957 
L 612.739465 308.682648 
L 613.094734 308.909276 
L 613.450002 309.472585 
L 613.805271 309.8125 
L 614.160539 310.602384 
L 614.515808 312.072097 
L 614.871076 310.942299 
L 615.226345 311.168873 
L 615.581613 310.039074 
L 615.936882 309.8125 
L 616.29215 311.168873 
L 616.647419 314.898182 
L 617.002688 314.334927 
L 617.357956 314.898182 
L 617.713225 314.898182 
L 618.068493 315.691353 
L 618.423762 315.12481 
L 618.77903 315.464725 
L 619.134299 315.464725 
L 619.489567 316.027981 
L 619.844836 316.254609 
L 620.200104 315.464725 
L 620.555373 316.027981 
L 620.910642 316.027981 
L 621.26591 315.691353 
L 621.621179 316.027981 
L 621.976447 315.464725 
L 622.331716 316.027981 
L 622.686984 316.027981 
L 623.397521 314.898182 
L 624.108058 298.734571 
L 624.463327 289.692951 
L 624.818596 285.737013 
L 625.173864 289.469557 
L 625.529133 294.555293 
L 626.23967 317.724322 
L 626.594938 319.080748 
L 627.305475 314.334927 
L 627.660744 310.039074 
L 628.016012 309.8125 
L 628.371281 310.039074 
L 628.726549 312.072097 
L 629.081818 310.602384 
L 629.437087 310.378989 
L 629.792355 310.378989 
L 630.147624 311.168873 
L 630.502892 310.602384 
L 630.858161 310.602384 
L 631.568698 309.245957 
L 631.923966 309.245957 
L 632.279235 309.472585 
L 632.989772 312.298671 
L 633.345041 312.638586 
L 633.700309 312.638586 
L 634.055578 312.865214 
L 634.766115 312.865214 
L 635.121383 313.201895 
L 635.476652 314.334927 
L 635.83192 314.334927 
L 636.187189 313.428469 
L 636.542457 313.995012 
L 636.897726 314.898182 
L 637.252995 313.995012 
L 637.608263 314.334927 
L 637.963532 313.768384 
L 638.3188 313.995012 
L 638.674069 313.995012 
L 639.029337 313.768384 
L 639.384606 312.865214 
L 639.739874 312.638586 
L 640.095143 312.865214 
L 640.450411 311.735416 
L 640.80568 311.168873 
L 641.160949 310.378989 
L 641.871486 308.116159 
L 642.226754 306.423052 
L 642.582023 306.423052 
L 642.937291 306.986361 
L 643.29256 306.986361 
L 643.647828 307.212935 
L 644.003097 306.986361 
L 644.358365 307.55285 
L 644.713634 308.342787 
L 645.068902 307.212935 
L 645.424171 307.779478 
L 645.77944 306.646446 
L 646.134708 306.646446 
L 646.489977 307.212935 
L 646.845245 309.8125 
L 647.200514 311.168873 
L 647.555782 311.508788 
L 647.911051 312.298671 
L 648.266319 312.298671 
L 648.621588 313.201895 
L 648.976856 313.428469 
L 649.332125 313.428469 
L 649.687394 313.768384 
L 650.042662 314.334927 
L 650.397931 313.768384 
L 650.753199 315.464725 
L 651.108468 315.464725 
L 651.463736 314.558267 
L 651.819005 315.12481 
L 652.174273 315.464725 
L 652.529542 316.027981 
L 652.88481 315.691353 
L 653.595348 315.691353 
L 653.950616 316.027981 
L 654.661153 316.027981 
L 655.016422 316.254609 
L 655.37169 317.157833 
L 655.726959 316.254609 
L 656.437496 316.821151 
L 656.792764 315.691353 
L 657.148033 315.12481 
L 657.503302 314.334927 
L 657.85857 314.558267 
L 658.213839 312.865214 
L 658.569107 312.072097 
L 658.924376 312.072097 
L 659.279644 312.865214 
L 659.634913 312.638586 
L 659.990181 313.201895 
L 660.34545 312.638586 
L 660.700718 313.201895 
L 661.055987 314.898182 
L 661.411255 317.157833 
L 661.766524 317.724322 
L 662.121793 317.724322 
L 662.477061 316.821151 
L 662.83233 317.384407 
L 663.187598 316.594524 
L 663.542867 317.157833 
L 663.898135 316.821151 
L 664.253404 316.821151 
L 664.608672 317.157833 
L 664.963941 317.157833 
L 665.319209 317.95095 
L 665.674478 316.594524 
L 666.029747 317.384407 
L 666.385015 316.027981 
L 666.740284 317.384407 
L 667.095552 316.594524 
L 667.450821 317.157833 
L 668.161358 317.157833 
L 668.516626 316.821151 
L 668.871895 317.384407 
L 669.227163 317.724322 
L 669.582432 317.724322 
L 669.937701 317.157833 
L 670.292969 317.384407 
L 670.648238 316.821151 
L 671.358775 316.254609 
L 671.714043 315.464725 
L 672.069312 316.254609 
L 672.42458 316.594524 
L 672.779849 317.724322 
L 673.135117 316.821151 
L 673.490386 315.464725 
L 673.845655 316.254609 
L 674.200923 315.464725 
L 674.556192 315.464725 
L 674.91146 313.201895 
L 675.266729 312.638586 
L 675.621997 313.201895 
L 675.977266 312.638586 
L 676.332534 313.995012 
L 676.687803 313.995012 
L 677.043071 315.464725 
L 677.39834 318.290865 
L 677.753608 317.724322 
L 678.464146 317.724322 
L 678.819414 317.384407 
L 679.174683 317.384407 
L 679.88522 318.514205 
L 680.240488 318.290865 
L 680.951025 318.85412 
L 681.306294 318.290865 
L 681.661562 317.95095 
L 682.727368 317.95095 
L 683.082637 318.290865 
L 683.793174 317.724322 
L 684.148442 318.514205 
L 684.503711 317.95095 
L 684.858979 317.157833 
L 685.214248 317.724322 
L 685.569516 317.724322 
L 686.635322 316.821151 
L 686.990591 317.384407 
L 687.345859 317.384407 
L 687.701128 316.594524 
L 689.122202 315.12481 
L 689.47747 315.464725 
L 689.832739 316.594524 
L 690.188007 315.691353 
L 690.543276 317.157833 
L 691.253813 314.558267 
L 691.96435 314.558267 
L 692.319619 312.865214 
L 692.674887 313.995012 
L 693.030156 314.558267 
L 693.385424 313.995012 
L 693.740693 317.724322 
L 694.095961 318.290865 
L 694.45123 318.514205 
L 694.806499 319.080748 
L 695.517036 319.647237 
L 695.872304 319.647237 
L 696.227573 319.420663 
L 696.582841 319.647237 
L 696.93811 319.420663 
L 697.293378 319.420663 
L 697.648647 319.983918 
L 698.003915 319.420663 
L 698.359184 319.420663 
L 698.714453 319.983918 
L 699.069721 320.210546 
L 699.42499 319.647237 
L 699.780258 318.514205 
L 700.135527 313.201895 
L 700.846064 295.118548 
L 701.201332 291.389238 
L 701.556601 292.519037 
L 701.911869 300.430912 
L 702.622407 323.376601 
L 702.977675 322.810058 
L 703.332944 321.906887 
L 704.043481 316.594524 
L 704.754018 316.594524 
L 705.109286 315.464725 
L 705.464555 316.594524 
L 706.175092 317.724322 
L 706.53036 316.821151 
L 706.885629 315.12481 
L 707.240898 317.157833 
L 707.596166 316.594524 
L 707.951435 314.558267 
L 708.306703 313.768384 
L 708.661972 313.428469 
L 709.01724 312.865214 
L 709.372509 313.201895 
L 709.727777 313.995012 
L 710.083046 314.334927 
L 710.438314 316.027981 
L 711.148852 318.290865 
L 711.50412 318.514205 
L 711.859389 317.95095 
L 712.569926 318.514205 
L 713.280463 317.384407 
L 713.635731 317.384407 
L 713.991 316.594524 
L 714.346268 317.157833 
L 714.701537 317.157833 
L 715.056806 316.254609 
L 715.412074 316.821151 
L 715.767343 315.691353 
L 716.122611 315.464725 
L 716.47788 315.691353 
L 716.833148 316.254609 
L 717.188417 315.691353 
L 717.543685 316.254609 
L 717.898954 315.12481 
L 718.254222 315.12481 
L 718.609491 314.898182 
L 718.96476 314.334927 
L 719.320028 314.334927 
L 719.675297 313.768384 
L 720.030565 313.428469 
L 720.385834 313.428469 
L 720.741102 312.298671 
L 721.096371 312.298671 
L 721.451639 313.201895 
L 721.806908 312.638586 
L 722.162176 313.995012 
L 722.517445 313.201895 
L 722.872713 313.428469 
L 723.227982 312.298671 
L 723.583251 312.638586 
L 724.293788 310.602384 
L 724.649056 311.168873 
L 725.004325 310.942299 
L 726.07013 313.428469 
L 726.425399 315.691353 
L 726.780667 316.594524 
L 727.135936 317.95095 
L 727.846473 317.95095 
L 728.201742 318.290865 
L 728.55701 318.85412 
L 728.912279 318.514205 
L 729.267547 318.514205 
L 729.622816 318.85412 
L 729.978084 318.514205 
L 730.333353 318.85412 
L 730.688621 318.514205 
L 731.04389 318.85412 
L 731.399159 318.290865 
L 731.754427 318.85412 
L 732.109696 318.290865 
L 732.464964 318.290865 
L 732.820233 317.724322 
L 733.175501 317.724322 
L 733.53077 317.384407 
L 733.886038 317.724322 
L 734.241307 316.594524 
L 734.596575 316.821151 
L 734.951844 316.821151 
L 735.307113 316.594524 
L 735.662381 316.594524 
L 736.01765 317.384407 
L 736.372918 316.821151 
L 736.728187 317.157833 
L 737.083455 317.157833 
L 737.438724 317.95095 
L 737.793992 317.157833 
L 738.504529 315.12481 
L 738.859798 316.027981 
L 739.570335 313.995012 
L 739.925604 312.865214 
L 740.280872 313.428469 
L 740.636141 314.558267 
L 740.991409 314.558267 
L 741.701946 318.85412 
L 742.057215 319.080748 
L 742.412483 319.080748 
L 742.767752 319.983918 
L 743.12302 319.420663 
L 743.478289 320.210546 
L 743.833558 319.420663 
L 744.544095 319.983918 
L 744.899363 319.420663 
L 745.254632 319.420663 
L 745.6099 319.647237 
L 745.965169 319.420663 
L 746.675706 319.420663 
L 747.030974 319.647237 
L 747.386243 318.85412 
L 747.741512 318.514205 
L 748.452049 317.384407 
L 748.807317 310.942299 
L 749.517854 293.08558 
L 749.873123 288.336525 
L 750.228391 290.822749 
L 750.58366 299.074486 
L 751.294197 321.340344 
L 751.649465 321.340344 
L 752.004734 319.647237 
L 752.360003 315.464725 
L 752.715271 314.558267 
L 753.07054 314.558267 
L 753.425808 313.201895 
L 753.781077 312.298671 
L 754.136345 313.201895 
L 754.491614 311.735416 
L 754.846882 311.508788 
L 755.202151 312.298671 
L 755.557419 312.298671 
L 755.912688 312.865214 
L 756.267957 314.898182 
L 757.689031 315.691353 
L 758.044299 315.691353 
L 758.399568 316.254609 
L 759.465373 316.254609 
L 759.820642 315.464725 
L 760.175911 315.691353 
L 760.531179 314.898182 
L 760.886448 315.12481 
L 761.241716 316.254609 
L 761.596985 315.691353 
L 761.952253 315.691353 
L 762.307522 315.12481 
L 762.66279 314.334927 
L 763.018059 314.898182 
L 763.373327 314.898182 
L 763.728596 314.334927 
L 764.083865 313.201895 
L 764.439133 313.428469 
L 765.14967 312.865214 
L 766.215476 310.378989 
L 766.926013 310.378989 
L 767.281281 310.942299 
L 767.991818 310.378989 
L 768.347087 308.682648 
L 768.702356 308.342787 
L 769.057624 306.646446 
L 769.412893 306.986361 
L 769.768161 306.646446 
L 770.12343 306.986361 
L 770.478698 307.779478 
L 770.833967 308.909276 
L 771.189235 308.682648 
L 771.544504 311.508788 
L 772.255041 313.995012 
L 772.965578 315.12481 
L 773.320847 315.464725 
L 774.386652 317.724322 
L 774.741921 316.594524 
L 775.097189 316.821151 
L 775.452458 317.384407 
L 775.807726 317.724322 
L 776.162995 317.157833 
L 776.518264 317.157833 
L 776.873532 317.724322 
L 777.228801 317.724322 
L 777.584069 317.384407 
L 777.939338 317.384407 
L 778.294606 317.157833 
L 778.649875 316.254609 
L 779.005143 317.157833 
L 779.360412 316.821151 
L 779.71568 315.691353 
L 780.070949 315.691353 
L 780.426218 315.12481 
L 780.781486 315.464725 
L 781.492023 314.898182 
L 782.557829 314.898182 
L 782.913097 315.464725 
L 783.268366 314.898182 
L 783.623634 314.898182 
L 783.978903 314.558267 
L 784.334171 313.768384 
L 784.68944 312.638586 
L 785.044709 312.638586 
L 785.755246 312.072097 
L 786.110514 312.638586 
L 786.465783 313.768384 
L 786.821051 313.768384 
L 787.17632 316.027981 
L 788.242125 317.724322 
L 788.597394 317.724322 
L 788.952663 318.290865 
L 789.307931 317.95095 
L 789.6632 318.85412 
L 790.018468 318.514205 
L 790.373737 319.080748 
L 790.729005 317.95095 
L 791.084274 317.95095 
L 791.439542 317.724322 
L 791.794811 317.95095 
L 792.150079 317.724322 
L 792.505348 317.95095 
L 792.860617 317.724322 
L 793.215885 318.290865 
L 793.571154 317.384407 
L 793.926422 317.384407 
L 794.281691 313.995012 
L 795.347496 286.643417 
L 795.702765 282.687534 
L 796.058033 286.643417 
L 796.413302 296.814889 
L 796.768571 311.508788 
L 797.123839 320.210546 
L 797.479108 319.080748 
L 797.834376 319.420663 
L 798.544913 312.865214 
L 798.900182 312.298671 
L 799.25545 313.201895 
L 799.610719 312.298671 
L 799.965987 311.735416 
L 800.321256 311.735416 
L 801.031793 308.682648 
L 801.387062 308.682648 
L 802.097599 310.039074 
L 802.452867 310.378989 
L 802.808136 313.768384 
L 803.163404 314.334927 
L 803.518673 313.995012 
L 803.873941 313.995012 
L 804.22921 314.334927 
L 804.584478 313.995012 
L 804.939747 313.201895 
L 805.295016 314.334927 
L 805.650284 313.201895 
L 805.650284 313.201895 
" style="fill:none;stroke:#1f77b4;stroke-linecap:square;stroke-width:1.5;"/>
   </g>
   <g id="patch_6">
    <path d="M 59.959375 333.36 
L 59.959375 7.2 
" style="fill:none;stroke:#000000;stroke-linecap:square;stroke-linejoin:miter;stroke-width:0.8;"/>
   </g>
   <g id="patch_7">
    <path d="M 841.159375 333.36 
L 841.159375 7.2 
" style="fill:none;stroke:#000000;stroke-linecap:square;stroke-linejoin:miter;stroke-width:0.8;"/>
   </g>
   <g id="patch_8">
    <path d="M 59.959375 333.36 
L 841.159375 333.36 
" style="fill:none;stroke:#000000;stroke-linecap:square;stroke-linejoin:miter;stroke-width:0.8;"/>
   </g>
   <g id="patch_9">
    <path d="M 59.959375 7.2 
L 841.159375 7.2 
" style="fill:none;stroke:#000000;stroke-linecap:square;stroke-linejoin:miter;stroke-width:0.8;"/>
   </g>
   <g id="text_17">
    <!-- +1 -->
    <g style="fill:#ff0000;" transform="translate(415.210155 33.034455)scale(0.18 -0.18)">
     <defs>
      <path d="M 46 62.703125 
L 46 35.5 
L 73.1875 35.5 
L 73.1875 27.203125 
L 46 27.203125 
L 46 0 
L 37.796875 0 
L 37.796875 27.203125 
L 10.59375 27.203125 
L 10.59375 35.5 
L 37.796875 35.5 
L 37.796875 62.703125 
z
" id="DejaVuSans-43"/>
     </defs>
     <use xlink:href="#DejaVuSans-43"/>
     <use x="83.789062" xlink:href="#DejaVuSans-49"/>
    </g>
   </g>
   <g id="text_18">
    <!-- +0.5 -->
    <g style="fill:#1f77b4;" transform="translate(326.393019 33.034455)scale(0.13 -0.13)">
     <use xlink:href="#DejaVuSans-43"/>
     <use x="83.789062" xlink:href="#DejaVuSans-48"/>
     <use x="147.412109" xlink:href="#DejaVuSans-46"/>
     <use x="179.199219" xlink:href="#DejaVuSans-53"/>
    </g>
   </g>
   <g id="text_19">
    <!-- +0.5 -->
    <g style="fill:#1f77b4;" transform="translate(468.500436 33.034455)scale(0.13 -0.13)">
     <use xlink:href="#DejaVuSans-43"/>
     <use x="83.789062" xlink:href="#DejaVuSans-48"/>
     <use x="147.412109" xlink:href="#DejaVuSans-46"/>
     <use x="179.199219" xlink:href="#DejaVuSans-53"/>
    </g>
   </g>
   <g id="legend_1">
    <g id="patch_10">
     <path d="M 676.724375 66.97 
L 829.959375 66.97 
Q 833.159375 66.97 833.159375 63.77 
L 833.159375 18.4 
Q 833.159375 15.2 829.959375 15.2 
L 676.724375 15.2 
Q 673.524375 15.2 673.524375 18.4 
L 673.524375 63.77 
Q 673.524375 66.97 676.724375 66.97 
z
" style="fill:#ffffff;opacity:0.8;stroke:#cccccc;stroke-linejoin:miter;"/>
    </g>
    <g id="line2d_18">
     <path d="M 679.924375 28.1575 
L 711.924375 28.1575 
" style="fill:none;stroke:#ff7f0e;stroke-dasharray:12.95,5.6;stroke-dashoffset:0;stroke-width:3.5;"/>
    </g>
    <g id="line2d_19"/>
    <g id="text_20">
     <!-- Weight Mask -->
     <g transform="translate(724.724375 33.7575)scale(0.16 -0.16)">
      <defs>
       <path d="M 9.8125 72.90625 
L 24.515625 72.90625 
L 43.109375 23.296875 
L 61.8125 72.90625 
L 76.515625 72.90625 
L 76.515625 0 
L 66.890625 0 
L 66.890625 64.015625 
L 48.09375 14.015625 
L 38.1875 14.015625 
L 19.390625 64.015625 
L 19.390625 0 
L 9.8125 0 
z
" id="DejaVuSans-77"/>
       <path d="M 9.078125 75.984375 
L 18.109375 75.984375 
L 18.109375 31.109375 
L 44.921875 54.6875 
L 56.390625 54.6875 
L 27.390625 29.109375 
L 57.625 0 
L 45.90625 0 
L 18.109375 26.703125 
L 18.109375 0 
L 9.078125 0 
z
" id="DejaVuSans-107"/>
      </defs>
      <use xlink:href="#DejaVuSans-87"/>
      <use x="93.001953" xlink:href="#DejaVuSans-101"/>
      <use x="154.525391" xlink:href="#DejaVuSans-105"/>
      <use x="182.308594" xlink:href="#DejaVuSans-103"/>
      <use x="245.785156" xlink:href="#DejaVuSans-104"/>
      <use x="309.164062" xlink:href="#DejaVuSans-116"/>
      <use x="348.373047" xlink:href="#DejaVuSans-32"/>
      <use x="380.160156" xlink:href="#DejaVuSans-77"/>
      <use x="466.439453" xlink:href="#DejaVuSans-97"/>
      <use x="527.71875" xlink:href="#DejaVuSans-115"/>
      <use x="579.818359" xlink:href="#DejaVuSans-107"/>
     </g>
    </g>
    <g id="line2d_20">
     <path d="M 679.924375 51.6425 
L 711.924375 51.6425 
" style="fill:none;stroke:#1f77b4;stroke-linecap:square;stroke-width:2;"/>
    </g>
    <g id="line2d_21"/>
    <g id="text_21">
     <!-- AF Mask -->
     <g transform="translate(724.724375 57.2425)scale(0.16 -0.16)">
      <defs>
       <path d="M 34.1875 63.1875 
L 20.796875 26.90625 
L 47.609375 26.90625 
z
M 28.609375 72.90625 
L 39.796875 72.90625 
L 67.578125 0 
L 57.328125 0 
L 50.6875 18.703125 
L 17.828125 18.703125 
L 11.1875 0 
L 0.78125 0 
z
" id="DejaVuSans-65"/>
       <path d="M 9.8125 72.90625 
L 51.703125 72.90625 
L 51.703125 64.59375 
L 19.671875 64.59375 
L 19.671875 43.109375 
L 48.578125 43.109375 
L 48.578125 34.8125 
L 19.671875 34.8125 
L 19.671875 0 
L 9.8125 0 
z
" id="DejaVuSans-70"/>
      </defs>
      <use xlink:href="#DejaVuSans-65"/>
      <use x="68.408203" xlink:href="#DejaVuSans-70"/>
      <use x="125.927734" xlink:href="#DejaVuSans-32"/>
      <use x="157.714844" xlink:href="#DejaVuSans-77"/>
      <use x="243.994141" xlink:href="#DejaVuSans-97"/>
      <use x="305.273438" xlink:href="#DejaVuSans-115"/>
      <use x="357.373047" xlink:href="#DejaVuSans-107"/>
     </g>
    </g>
   </g>
  </g>
  <g id="axes_2">
   <g id="matplotlib.axis_3">
    <g id="ytick_6">
     <g id="line2d_22">
      <defs>
       <path d="M 0 0 
L 3.5 0 
" id="mad4981bc1c" style="stroke:#000000;stroke-width:0.8;"/>
      </defs>
      <g>
       <use style="stroke:#000000;stroke-width:0.8;" x="841.159375" xlink:href="#mad4981bc1c" y="275.232475"/>
      </g>
     </g>
     <g id="text_22">
      <!-- 0 -->
      <g transform="translate(848.159375 282.830913)scale(0.2 -0.2)">
       <use xlink:href="#DejaVuSans-48"/>
      </g>
     </g>
    </g>
    <g id="ytick_7">
     <g id="line2d_23">
      <g>
       <use style="stroke:#000000;stroke-width:0.8;" x="841.159375" xlink:href="#mad4981bc1c" y="210.646337"/>
      </g>
     </g>
     <g id="text_23">
      <!-- 2 -->
      <g transform="translate(848.159375 218.244774)scale(0.2 -0.2)">
       <use xlink:href="#DejaVuSans-50"/>
      </g>
     </g>
    </g>
    <g id="ytick_8">
     <g id="line2d_24">
      <g>
       <use style="stroke:#000000;stroke-width:0.8;" x="841.159375" xlink:href="#mad4981bc1c" y="146.060198"/>
      </g>
     </g>
     <g id="text_24">
      <!-- 4 -->
      <g transform="translate(848.159375 153.658636)scale(0.2 -0.2)">
       <use xlink:href="#DejaVuSans-52"/>
      </g>
     </g>
    </g>
    <g id="ytick_9">
     <g id="line2d_25">
      <g>
       <use style="stroke:#000000;stroke-width:0.8;" x="841.159375" xlink:href="#mad4981bc1c" y="81.474059"/>
      </g>
     </g>
     <g id="text_25">
      <!-- 6 -->
      <g transform="translate(848.159375 89.072497)scale(0.2 -0.2)">
       <use xlink:href="#DejaVuSans-54"/>
      </g>
     </g>
    </g>
    <g id="ytick_10">
     <g id="line2d_26">
      <g>
       <use style="stroke:#000000;stroke-width:0.8;" x="841.159375" xlink:href="#mad4981bc1c" y="16.887921"/>
      </g>
     </g>
     <g id="text_26">
      <!-- 8 -->
      <g transform="translate(848.159375 24.486358)scale(0.2 -0.2)">
       <use xlink:href="#DejaVuSans-56"/>
      </g>
     </g>
    </g>
    <g id="text_27">
     <!-- AF Mask Value (n.u.) -->
     <g transform="translate(887.679688 323.549531)rotate(-90)scale(0.3 -0.3)">
      <defs>
       <path d="M 28.609375 0 
L 0.78125 72.90625 
L 11.078125 72.90625 
L 34.1875 11.53125 
L 57.328125 72.90625 
L 67.578125 72.90625 
L 39.796875 0 
z
" id="DejaVuSans-86"/>
      </defs>
      <use xlink:href="#DejaVuSans-65"/>
      <use x="68.408203" xlink:href="#DejaVuSans-70"/>
      <use x="125.927734" xlink:href="#DejaVuSans-32"/>
      <use x="157.714844" xlink:href="#DejaVuSans-77"/>
      <use x="243.994141" xlink:href="#DejaVuSans-97"/>
      <use x="305.273438" xlink:href="#DejaVuSans-115"/>
      <use x="357.373047" xlink:href="#DejaVuSans-107"/>
      <use x="415.283203" xlink:href="#DejaVuSans-32"/>
      <use x="447.070312" xlink:href="#DejaVuSans-86"/>
      <use x="507.728516" xlink:href="#DejaVuSans-97"/>
      <use x="569.007812" xlink:href="#DejaVuSans-108"/>
      <use x="596.791016" xlink:href="#DejaVuSans-117"/>
      <use x="660.169922" xlink:href="#DejaVuSans-101"/>
      <use x="721.693359" xlink:href="#DejaVuSans-32"/>
      <use x="753.480469" xlink:href="#DejaVuSans-40"/>
      <use x="792.494141" xlink:href="#DejaVuSans-110"/>
      <use x="855.873047" xlink:href="#DejaVuSans-46"/>
      <use x="887.660156" xlink:href="#DejaVuSans-117"/>
      <use x="951.039062" xlink:href="#DejaVuSans-46"/>
      <use x="982.826172" xlink:href="#DejaVuSans-41"/>
     </g>
    </g>
   </g>
   <g id="line2d_27">
    <path clip-path="url(#p578e01f9d6)" d="M 95.468466 275.232475 
L 420.894452 275.232475 
L 421.24972 242.939406 
L 805.650284 242.939406 
L 805.650284 242.939406 
" style="fill:none;stroke:#1f77b4;stroke-linecap:square;stroke-width:2;"/>
   </g>
   <g id="patch_11">
    <path d="M 59.959375 333.36 
L 59.959375 7.2 
" style="fill:none;stroke:#000000;stroke-linecap:square;stroke-linejoin:miter;stroke-width:0.8;"/>
   </g>
   <g id="patch_12">
    <path d="M 841.159375 333.36 
L 841.159375 7.2 
" style="fill:none;stroke:#000000;stroke-linecap:square;stroke-linejoin:miter;stroke-width:0.8;"/>
   </g>
   <g id="patch_13">
    <path d="M 59.959375 333.36 
L 841.159375 333.36 
" style="fill:none;stroke:#000000;stroke-linecap:square;stroke-linejoin:miter;stroke-width:0.8;"/>
   </g>
   <g id="patch_14">
    <path d="M 59.959375 7.2 
L 841.159375 7.2 
" style="fill:none;stroke:#000000;stroke-linecap:square;stroke-linejoin:miter;stroke-width:0.8;"/>
   </g>
  </g>
 </g>
 <defs>
  <clipPath id="p578e01f9d6">
   <rect height="326.16" width="781.2" x="59.959375" y="7.2"/>
  </clipPath>
 </defs>
</svg>
